<?xml version="1.0" encoding="UTF-8" standalone="yes"?>
<svg opacity="0.3" fill="none" stroke-linecap="square" stroke-miterlimit="10" version="1.1" viewBox="0.0 0.0 960.0 720.0" xmlns="http://www.w3.org/2000/svg">
 <clipPath id="a">
  <path d="m0 0h960v720h-960v-720z"/>
 </clipPath>
 <g clip-path="url(#a)">
  <path d="m0 0h960v720h-960z" fill="#000" fill-opacity="0"/>
  <path d="m252.13 109.56l9.6543 13.01-204.91 100.61-9.6544-13.01z" fill="#9fc6f3"/>
  <path d="m217.62 87.652l18.294-3.0177 8.7799 35.074-18.294 3.0177z" fill="#9fc6f3"/>
  <path d="m279.6 141.03l-9.5494 13.039-37.743-18.306 9.5494-13.039z" fill="#9fc6f3"/>
  <path d="m29.641 189.88l10.564-12.555 36.274 20.213-10.564 12.555z" fill="#9fc6f3"/>
  <path d="m67.834 206.17l18.399 2.6761-7.6955 35.245-18.399-2.6761z" fill="#9fc6f3"/>
  <path d="m192.44 102.84l17.91-4.3558 12.558 34.305-17.91 4.3558z" fill="#9fc6f3"/>
  <path d="m254.06 156.51l-12.138 11.53-33.37-23.288 12.138-11.53z" fill="#9fc6f3"/>
  <path d="m58.104 176.69l10.704-12.441 35.994 20.526-10.704 12.441z" fill="#9fc6f3"/>
  <path d="m125.86 225.21l-17.315 5.7508-16.615-33.138 17.315-5.7508z" fill="#9fc6f3"/>
  <path d="m79.819 113.5l7.818-12.917 164.34 113.1-7.818 12.917z" fill="#9fc6f3"/>
  <path d="m73.439 149.16l-9.4437-12.647 27.485-21.682 9.4437 12.647z" fill="#9fc6f3"/>
  <path d="m97.204 79.124l14.979 1.7012-2.0224 36.579-14.979-1.7012z" fill="#9fc6f3"/>
  <path d="m232.91 248.67l-14.932-2.6809 4.2404-36.276 14.932 2.6809z" fill="#9fc6f3"/>
  <path d="m233 212.61l-4.4912-15.161 33.757-9.2038 4.4912 15.161z" fill="#9fc6f3"/>
  <path d="m96.112 161.84l-10.474-11.782 25.407-24.232 10.474 11.782z" fill="#9fc6f3"/>
  <path d="m120.27 91.962l14.618 4.3183-8.0147 35.378-14.618-4.3183z" fill="#9fc6f3"/>
  <path d="m210.77 232.62l-14.884-2.8362 4.619-36.196 14.884 2.8362z" fill="#9fc6f3"/>
  <path d="m228.13 160.26l11.476 10.733-22.876 26.824-11.476-10.733z" fill="#9fc6f3"/>
  <path d="m172.94 69.14l15.222 0.28802-29.9 206.13-15.222-0.28802z" fill="#9fc6f3"/>
  <path d="m137.67 81.968l7.3111-15.043 31.93 13.355-7.3111 15.043z" fill="#9fc6f3"/>
  <path d="m211.93 66.838l5.1046 14.31-34.174 17.215-5.1046-14.31z" fill="#9fc6f3"/>
  <path d="m117.96 276.66l-4.1923-14.777 34.882-15.069 4.1923 14.777z" fill="#9fc6f3"/>
  <path d="m150.81 257.98l11.797-11.912 23.364 25.467-11.797 11.912z" fill="#9fc6f3"/>
  <path d="m136.2 108.89l6.0667-15.516 33.326 10.167-6.0667 15.516z" fill="#9fc6f3"/>
  <path d="m210.5 94.187l2.5637 15.348-35.742 11.219-2.5637-15.348z" fill="#9fc6f3"/>
  <path d="m122.73 248.47l-4.0298-14.815 34.978-14.688 4.0298 14.815z" fill="#9fc6f3"/>
  <path d="m196.26 226.38l-4.6671 15.868-34.561-6.5499 4.6671-15.868z" fill="#9fc6f3"/>
  <path d="m336.1 262.98l14.608 7.0063-134.34 184.57-14.608-7.0063z" fill="#cfe2f3"/>
  <path d="m295.36 259.69l14.776-11.202 24.125 26.932-14.776 11.202z" fill="#cfe2f3"/>
  <path d="m375.08 278.01l-2.3661 15.988-41.925 1.41 2.366-15.988z" fill="#cfe2f3"/>
  <path d="m176.75 437.79l3.4891-16.033 41.515 0.96249-3.4891 16.033z" fill="#cfe2f3"/>
  <path d="m218.14 434.4l17.524-6.2141 9.6308 34.767-17.524 6.2141z" fill="#cfe2f3"/>
  <path d="m280.17 284.87l13.811-12.206 27.109 24.49-13.811 12.206z" fill="#cfe2f3"/>
  <path d="m359.71 303.61l-5.3596 15.861-40.381-5.0365 5.3596-15.861z" fill="#cfe2f3"/>
  <path d="m195.78 412.85l3.666-15.998 41.414 1.3701-3.666 15.998z" fill="#cfe2f3"/>
  <path d="m278.34 424.17l-12.635 13.163-30.154-21.565 12.635-13.163z" fill="#cfe2f3"/>
  <path d="m185.52 346.83l0.89142-15.073 198.13 23.398-0.89142 15.073z" fill="#cfe2f3"/>
  <path d="m196.5 381.35l-14.253-6.7833 14.201-31.999 14.253 6.7833z" fill="#cfe2f3"/>
  <path d="m184.86 308.31l14.044-5.4814 15.272 33.301-14.044 5.4814z" fill="#cfe2f3"/>
  <path d="m383.98 395l-14.459 4.5926-13.168-34.067 14.459-4.5926z" fill="#cfe2f3"/>
  <path d="m367.24 363.05l-11.044-11.317 25.569-23.886 11.044 11.317z" fill="#cfe2f3"/>
  <path d="m222.48 381.99l-14.76-5.5376 11.174-33.285 14.76 5.5376z" fill="#cfe2f3"/>
  <path d="m211.25 308.91l14.945-2.998 9.4105 35.034-14.945 2.998z" fill="#cfe2f3"/>
  <path d="m356.91 391.13l-14.489 4.433-12.796-34.173 14.489-4.433z" fill="#cfe2f3"/>
  <path d="m338.52 319.03l15.157 4.142-7.7256 34.398-15.157-4.142z" fill="#cfe2f3"/>
  <path d="m247.2 264.16l13.6-6.8448 69.688 196.28-13.6 6.8448z" fill="#cfe2f3"/>
  <path d="m221.98 291.95l-0.54852-16.717 34.474-3.0782 0.54854 16.717z" fill="#cfe2f3"/>
  <path d="m280.62 243.93l11.19 10.278-22.201 31.167-11.19-10.278z" fill="#cfe2f3"/>
  <path d="m295.36 473.36l-10.601-11.117 23.829-29.599 10.601 11.117z" fill="#cfe2f3"/>
  <path d="m315.7 441.52l4.8803-16.039 32.546 11.632-4.8803 16.039z" fill="#cfe2f3"/>
  <path d="m233.24 316.45l-1.87-16.555 34.222-6.5499 1.87 16.555z" fill="#cfe2f3"/>
  <path d="m292.11 268.8l9.4261 12.381-26.385 26.595-9.4261-12.381z" fill="#cfe2f3"/>
  <path d="m286.42 446.21l-10.475-11.226 24.091-29.307 10.475 11.226z" fill="#cfe2f3"/>
  <path d="m341.17 392.38l3.2723 16.214-33.627 10.325-3.2723-16.214z" fill="#cfe2f3"/>
  <path d="m446.07 110.51l6.956 9.7253-147.64 75.206-6.9559-9.7253z" fill="#cfe2f3"/>
  <path d="m421.2 94.131l13.181-2.2558 6.3259 26.218-13.181 2.2558z" fill="#cfe2f3"/>
  <path d="m465.86 134.03l-6.8803 9.7466-27.194-13.684 6.8804-9.7466z" fill="#cfe2f3"/>
  <path d="m285.77 170.54l7.6112-9.3848 26.135 15.109-7.6112 9.3848z" fill="#cfe2f3"/>
  <path d="m313.28 182.72l13.257 2.0004-5.5446 26.346-13.257-2.0004z" fill="#cfe2f3"/>
  <path d="m403.07 105.49l12.904-3.256 9.0478 25.643-12.904 3.256z" fill="#cfe2f3"/>
  <path d="m447.46 145.61l-8.7454 8.6187-24.043-17.408 8.7454-8.6187z" fill="#cfe2f3"/>
  <path d="m306.27 160.68l7.712-9.2997 25.934 15.343-7.712 9.2997z" fill="#cfe2f3"/>
  <path d="m355.09 196.95l-12.475 4.2987-11.971-24.771 12.475-4.2987z" fill="#cfe2f3"/>
  <path d="m321.92 113.45l5.6329-9.6553 118.41 84.542-5.6329 9.6553z" fill="#cfe2f3"/>
  <path d="m317.32 140.11l-6.8041-9.4539 19.803-16.208 6.8041 9.4539z" fill="#cfe2f3"/>
  <path d="m334.44 87.757l10.792 1.2717-1.4571 27.343-10.792-1.2717z" fill="#cfe2f3"/>
  <path d="m432.22 214.49l-10.758-2.004 3.0553-27.116 10.758 2.004z" fill="#cfe2f3"/>
  <path d="m432.29 187.53l-3.2359-11.333 24.322-6.8799 3.2359 11.333z" fill="#cfe2f3"/>
  <path d="m333.66 149.59l-7.5463-8.8072 18.306-18.113 7.5463 8.8072z" fill="#cfe2f3"/>
  <path d="m351.06 97.353l10.532 3.2279-5.7746 26.445-10.532-3.2279z" fill="#cfe2f3"/>
  <path d="m416.27 202.5l-10.724-2.1201 3.328-27.057 10.724 2.1201z" fill="#cfe2f3"/>
  <path d="m428.77 148.41l8.2682 8.0228-16.482 20.051-8.2682-8.0228z" fill="#cfe2f3"/>
  <path d="m389.01 80.294l10.967 0.21529-21.543 154.08-10.967-0.21529z" fill="#cfe2f3"/>
  <path d="m363.6 89.883l5.2676-11.244 23.006 9.9829-5.2676 11.244z" fill="#cfe2f3"/>
  <path d="m417.11 78.573l3.6779 10.697-24.622 12.868-3.6778-10.697z" fill="#cfe2f3"/>
  <path d="m349.4 235.41l-3.0206-11.046 25.133-11.264 3.0206 11.046z" fill="#cfe2f3"/>
  <path d="m373.07 221.45l8.5-8.904 16.834 19.037-8.5 8.904z" fill="#cfe2f3"/>
  <path d="m362.54 110.01l4.371-11.598 24.012 7.5997-4.371 11.598z" fill="#cfe2f3"/>
  <path d="m416.07 99.016l1.8471 11.473-25.752 8.3865-1.8471-11.473z" fill="#cfe2f3"/>
  <path d="m352.83 214.34l-2.9035-11.074 25.202-10.98 2.9035 11.074z" fill="#cfe2f3"/>
  <path d="m405.82 197.83l-3.3627 11.861-24.901-4.896 3.3627-11.861z" fill="#cfe2f3"/>
  <path d="m155.55 357.21l0.72087 8.9946-125.99-11.686-0.72086-8.9946z" fill="#cfe2f3"/>
  <path d="m145.75 336.76l9.4959 3.8808-6.173 19.236-9.4959-3.8808z" fill="#cfe2f3"/>
  <path d="m159.23 380.17l-8.3248 3.4276-12.384-19.676 8.3248-3.4276z" fill="#cfe2f3"/>
  <path d="m27.251 330.76l8.66-2.9026 11.132 20.157-8.66 2.9026z" fill="#cfe2f3"/>
  <path d="m40.437 349.61l7.8724 6.6198-13.976 14.53-7.8724-6.6198z" fill="#cfe2f3"/>
  <path d="m129.44 336.67l9.7079 3.1324-4.1693 19.968-9.7079-3.1324z" fill="#cfe2f3"/>
  <path d="m142.66 380.11l-9.0996 1.9576-8.8622-20.776 9.0996-1.9576z" fill="#cfe2f3"/>
  <path d="m44.521 332.76l8.6924-2.8077 10.908 20.224-8.6924 2.8077z" fill="#cfe2f3"/>
  <path d="m62.15 375.53l-9.838-2.2961 1.9169-20.592 9.838 2.2961z" fill="#cfe2f3"/>
  <path d="m73.304 309.02l7.4741-3.8726 44.112 101.56-7.4741 3.8726z" fill="#cfe2f3"/>
  <path d="m59.825 324.12l-0.72841-8.7607 19.305-2.3272 0.72841 8.7607z" fill="#cfe2f3"/>
  <path d="m91.585 297.71l6.5493 5.1622-11.699 16.813-6.5493-5.1622z" fill="#cfe2f3"/>
  <path d="m105.63 417.8l-6.2392-5.6145 12.653-16.024 6.2392 5.6145z" fill="#cfe2f3"/>
  <path d="m116.27 400.67l2.3408-8.5174 18.59 5.4315-2.3408 8.5173z" fill="#cfe2f3"/>
  <path d="m66.768 336.75l-1.4673-8.6484 19.076-4.1437 1.4673 8.6484z" fill="#cfe2f3"/>
  <path d="m98.667 310.52l5.6106 6.3022-14.166 14.5-5.6106-6.3022z" fill="#cfe2f3"/>
  <path d="m99.929 403.73l-6.1711-5.6745 12.808-15.876 6.1711 5.6745z" fill="#cfe2f3"/>
  <path d="m129.36 374.36l2.2471 8.4404-18.647 6.1124-2.2471-8.4404z" fill="#cfe2f3"/>
  <path d="m130.16 314.97l7.0789 4.5605-74.631 89.365-7.0789-4.5605z" fill="#cfe2f3"/>
  <path d="m109.79 310.83l7.8601-5.0312 11.103 15.632-7.8601 5.0312z" fill="#cfe2f3"/>
  <path d="m149.19 325.21l-1.8021 8.2907-21.14-1.7417 1.8021-8.2907z" fill="#cfe2f3"/>
  <path d="m43.321 397.71l2.3686-8.2478 20.843 2.9685-2.3686 8.2478z" fill="#cfe2f3"/>
  <path d="m64.265 398.37l9.0515-2.2381 3.5127 18.904-9.0515 2.2381z" fill="#cfe2f3"/>
  <path d="m101.19 323.2l7.4135-5.6179 12.696 14.521-7.4135 5.6179z" fill="#cfe2f3"/>
  <path d="m140.47 337.8l-3.3028 8.046-20.116-5.0496 3.3028-8.046z" fill="#cfe2f3"/>
  <path d="m53.844 385.69l2.4562-8.2186 20.776 3.1774-2.4562 8.2187z" fill="#cfe2f3"/>
  <path d="m94.936 396.55l-6.8584 6.1921-14.34-13.159 6.8584-6.1921z" fill="#cfe2f3"/>
  <path d="m153.67 470.95l6.2589 8.2408-132.84 63.727-6.2589-8.2408z" fill="#cfe2f3"/>
  <path d="m131.3 457.08l11.86-1.9114 5.692 22.216-11.86 1.9114z" fill="#cfe2f3"/>
  <path d="m171.48 490.89l-6.1909 8.2588-24.469-11.595 6.1909-8.2589z" fill="#cfe2f3"/>
  <path d="m9.4349 521.82l6.8485-7.9523 23.516 12.803-6.8485 7.9523z" fill="#cfe2f3"/>
  <path d="m34.196 532.15l11.928 1.695-4.989 22.324-11.928-1.695z" fill="#cfe2f3"/>
  <path d="m114.98 466.7l11.611-2.759 8.1411 21.729-11.611 2.759z" fill="#cfe2f3"/>
  <path d="m154.92 500.69l-7.869 7.3031-21.634-14.751 7.869-7.3031z" fill="#cfe2f3"/>
  <path d="m27.887 513.47l6.9392-7.8802 23.335 13.001-6.9392 7.8801z" fill="#cfe2f3"/>
  <path d="m71.812 544.2l-11.225 3.6426-10.772-20.99 11.225-3.6425z" fill="#cfe2f3"/>
  <path d="m41.966 473.45l5.0684-8.1815 106.54 71.637-5.0684 8.1815z" fill="#cfe2f3"/>
  <path d="m37.829 496.03l-6.1223-8.0108 17.819-13.734 6.1223 8.0108z" fill="#cfe2f3"/>
  <path d="m53.236 451.67l9.7109 1.0776-1.3111 23.169-9.7109-1.0775z" fill="#cfe2f3"/>
  <path d="m141.21 559.06l-9.6803-1.6981 2.7491-22.977 9.6803 1.6981z" fill="#cfe2f3"/>
  <path d="m141.27 536.22l-2.9116-9.6031 21.885-5.8297 2.9116 9.6031z" fill="#cfe2f3"/>
  <path d="m52.528 504.07l-6.7901-7.4628 16.472-15.348 6.7901 7.4628z" fill="#cfe2f3"/>
  <path d="m68.188 459.8l9.477 2.7352-5.1959 22.408-9.477-2.7352z" fill="#cfe2f3"/>
  <path d="m126.86 548.9l-9.6493-1.7965 2.9945-22.927 9.6492 1.7964z" fill="#cfe2f3"/>
  <path d="m138.11 503.07l7.4397 6.7982-14.831 16.99-7.4397-6.7982z" fill="#cfe2f3"/>
  <path d="m102.33 445.35l9.8685 0.18243-19.384 130.56-9.8685-0.18243z" fill="#cfe2f3"/>
  <path d="m79.47 453.48l4.7398-9.528 20.7 8.4591-4.7398 9.528z" fill="#cfe2f3"/>
  <path d="m127.61 443.89l3.3093 9.064-22.155 10.904-3.3093-9.064z" fill="#cfe2f3"/>
  <path d="m66.695 576.79l-2.7179-9.3599 22.614-9.5447 2.7179 9.3599z" fill="#cfe2f3"/>
  <path d="m87.99 564.96l7.6482-7.5448 15.147 16.131-7.6482 7.5448z" fill="#cfe2f3"/>
  <path d="m78.516 470.53l3.933-9.8277 21.606 6.4396-3.933 9.8277z" fill="#cfe2f3"/>
  <path d="m126.68 461.21l1.662 9.7214-23.172 7.1063-1.662-9.7214z" fill="#cfe2f3"/>
  <path d="m69.783 558.93l-2.6125-9.3839 22.676-9.3036 2.6125 9.3839z" fill="#cfe2f3"/>
  <path d="m117.45 544.95l-3.0257 10.051-22.406-4.1487 3.0257-10.051z" fill="#cfe2f3"/>
  <path d="m387.88-127.32l14.419 7.3847-139.1 180.98-14.419-7.3847z" fill="#cfe2f3"/>
  <path d="m347.24-131.67l15.062-10.811 23.412 27.55-15.062 10.811z" fill="#cfe2f3"/>
  <path d="m426.45-111.28l-2.7826 15.919-41.944 0.31461 2.7825-15.919z" fill="#cfe2f3"/>
  <path d="m224.03 43.262l3.9063-15.935 41.472 2.0462-3.9063 15.935z" fill="#cfe2f3"/>
  <path d="m265.49 40.946l17.679-5.7538 8.7188 35.003-17.679 5.7538z" fill="#cfe2f3"/>
  <path d="m331.4-106.89l14.124-11.84 26.457 25.187-14.124 11.84z" fill="#cfe2f3"/>
  <path d="m410.41-86.082l-5.7715 15.714-40.232-6.0888 5.7715-15.714z" fill="#cfe2f3"/>
  <path d="m243.7 18.826l4.0822-15.895 41.36 2.4509-4.0822 15.895z" fill="#cfe2f3"/>
  <path d="m325.93 32.299l-12.973 12.827-29.577-22.343 12.973-12.827z" fill="#cfe2f3"/>
  <path d="m235.17-47.434l1.2846-15.043 197.43 28.562-1.2846 15.043z" fill="#cfe2f3"/>
  <path d="m245.25-12.645l-14.069-7.1526 15.03-31.615 14.069 7.1526z" fill="#cfe2f3"/>
  <path d="m235.52-85.954l14.181-5.1123 14.396 33.686-14.181 5.1123z" fill="#cfe2f3"/>
  <path d="m432.29 5.8964l-14.573 4.2131-12.273-34.396 14.573-4.2131z" fill="#cfe2f3"/>
  <path d="m416.39-26.471l-10.744-11.601 26.182-23.208 10.744 11.601z" fill="#cfe2f3"/>
  <path d="m271.19-11.32l-14.609-5.9206 12.038-32.979 14.609 5.9206z" fill="#cfe2f3"/>
  <path d="m261.88-84.666l15.017-2.6065 8.4916 35.264-15.017 2.6064z" fill="#cfe2f3"/>
  <path d="m405.33 1.3242l-14.599 4.0527-11.898-34.493 14.599-4.0527z" fill="#cfe2f3"/>
  <path d="m388.83-71.23l15.042 4.536-8.6205 34.182-15.042-4.536z" fill="#cfe2f3"/>
  <path d="m298.98-128.46l13.773-6.4867 64.532 198.02-13.773 6.4867z" fill="#cfe2f3"/>
  <path d="m273.05-101.33l-0.11176-16.724 34.54-2.1766 0.11176 16.724z" fill="#cfe2f3"/>
  <path d="m332.92-147.8l10.917 10.566-23.005 30.574-10.917-10.566z" fill="#cfe2f3"/>
  <path d="m341.66 81.915l-10.306-11.389 24.591-28.964 10.306 11.389z" fill="#cfe2f3"/>
  <path d="m362.82 50.619l5.2971-15.905 32.228 12.476-5.2971 15.905z" fill="#cfe2f3"/>
  <path d="m283.66-76.551l-1.4369-16.597 34.379-5.6534 1.4369 16.597z" fill="#cfe2f3"/>
  <path d="m343.75-122.65l9.0987 12.622-27.068 25.894-9.0987-12.622z" fill="#cfe2f3"/>
  <path d="m333.43 54.534l-10.177-11.495 24.846-28.666 10.177 11.495z" fill="#cfe2f3"/>
  <path d="m389.57 2.1589l2.8475 16.292-33.882 9.4425-2.8475-16.292z" fill="#cfe2f3"/>
  <path d="m322.83 586.48l9.6543 13.01-204.91 100.61-9.6544-13.01z" fill="#9fc6f3"/>
  <path d="m288.32 564.57l18.294-3.0178 8.7798 35.074-18.294 3.0178z" fill="#9fc6f3"/>
  <path d="m350.3 617.95l-9.5494 13.039-37.743-18.306 9.5494-13.039z" fill="#9fc6f3"/>
  <path d="m100.34 666.8l10.564-12.555 36.274 20.213-10.564 12.555z" fill="#9fc6f3"/>
  <path d="m138.54 683.09l18.399 2.6761-7.6955 35.245-18.399-2.6761z" fill="#9fc6f3"/>
  <path d="m263.15 579.77l17.91-4.3558 12.558 34.306-17.91 4.3558z" fill="#9fc6f3"/>
  <path d="m324.76 633.44l-12.138 11.53-33.37-23.288 12.138-11.53z" fill="#9fc6f3"/>
  <path d="m128.81 653.61l10.704-12.441 35.994 20.526-10.704 12.441z" fill="#9fc6f3"/>
  <path d="m196.56 702.13l-17.315 5.7508-16.615-33.138 17.315-5.7508z" fill="#9fc6f3"/>
  <path d="m150.52 590.42l7.818-12.917 164.34 113.1-7.818 12.917z" fill="#9fc6f3"/>
  <path d="m144.14 626.08l-9.4437-12.647 27.485-21.682 9.4437 12.647z" fill="#9fc6f3"/>
  <path d="m167.91 556.05l14.979 1.7012-2.0224 36.579-14.979-1.7012z" fill="#9fc6f3"/>
  <path d="m303.61 725.59l-14.932-2.681 4.2404-36.276 14.932 2.681z" fill="#9fc6f3"/>
  <path d="m303.7 689.53l-4.4912-15.161 33.757-9.2039 4.4912 15.161z" fill="#9fc6f3"/>
  <path d="m166.82 638.76l-10.474-11.782 25.407-24.232 10.474 11.782z" fill="#9fc6f3"/>
  <path d="m190.97 568.88l14.618 4.3182-8.0147 35.378-14.618-4.3183z" fill="#9fc6f3"/>
  <path d="m281.47 709.55l-14.884-2.8362 4.619-36.196 14.884 2.8362z" fill="#9fc6f3"/>
  <path d="m298.83 637.19l11.476 10.733-22.876 26.824-11.476-10.733z" fill="#9fc6f3"/>
  <path d="m243.64 546.06l15.222 0.28802-29.9 206.13-15.222-0.28802z" fill="#9fc6f3"/>
  <path d="m208.37 558.89l7.3111-15.043 31.93 13.355-7.3111 15.043z" fill="#9fc6f3"/>
  <path d="m282.63 543.76l5.1046 14.31-34.174 17.215-5.1046-14.31z" fill="#9fc6f3"/>
  <path d="m188.67 753.58l-4.1923-14.777 34.882-15.069 4.1923 14.777z" fill="#9fc6f3"/>
  <path d="m221.51 734.9l11.797-11.912 23.364 25.467-11.797 11.912z" fill="#9fc6f3"/>
  <path d="m206.9 585.81l6.0667-15.516 33.326 10.167-6.0667 15.516z" fill="#9fc6f3"/>
  <path d="m281.2 571.11l2.5637 15.348-35.742 11.219-2.5637-15.348z" fill="#9fc6f3"/>
  <path d="m193.43 725.39l-4.0298-14.815 34.978-14.688 4.0298 14.815z" fill="#9fc6f3"/>
  <path d="m266.96 703.31l-4.6671 15.868-34.561-6.5499 4.6671-15.868z" fill="#9fc6f3"/>
  <path d="m64.547 603.11l9.6544 13.01-204.91 100.61-9.6543-13.01z" fill="#cfe2f3"/>
  <path d="m30.038 581.2l18.294-3.0177 8.7799 35.074-18.294 3.0177z" fill="#cfe2f3"/>
  <path d="m92.013 634.58l-9.5494 13.039-37.743-18.306 9.5494-13.039z" fill="#cfe2f3"/>
  <path d="m-157.94 683.43l10.564-12.555 36.274 20.213-10.564 12.555z" fill="#cfe2f3"/>
  <path d="m-119.75 699.72l18.399 2.6761-7.6955 35.245-18.399-2.6761z" fill="#cfe2f3"/>
  <path d="m4.8617 596.39l17.91-4.3558 12.558 34.305-17.91 4.3558z" fill="#cfe2f3"/>
  <path d="m66.474 650.06l-12.138 11.53-33.37-23.288 12.138-11.53z" fill="#cfe2f3"/>
  <path d="m-129.48 670.23l10.704-12.441 35.994 20.526-10.704 12.441z" fill="#cfe2f3"/>
  <path d="m-61.726 718.76l-17.315 5.7508-16.615-33.138 17.315-5.7508z" fill="#cfe2f3"/>
  <path d="m-107.76 607.05l7.818-12.917 164.34 113.1-7.818 12.917z" fill="#cfe2f3"/>
  <path d="m-114.14 642.71l-9.4437-12.647 27.485-21.682 9.4437 12.647z" fill="#cfe2f3"/>
  <path d="m-90.379 572.67l14.979 1.7012-2.0224 36.579-14.979-1.7012z" fill="#cfe2f3"/>
  <path d="m45.325 742.22l-14.932-2.6809 4.2404-36.276 14.932 2.6809z" fill="#cfe2f3"/>
  <path d="m45.417 706.15l-4.4912-15.161 33.757-9.2038 4.4912 15.161z" fill="#cfe2f3"/>
  <path d="m-91.47 655.39l-10.474-11.782 25.407-24.232 10.474 11.782z" fill="#cfe2f3"/>
  <path d="m-67.315 585.51l14.618 4.3183-8.0147 35.378-14.618-4.3182z" fill="#cfe2f3"/>
  <path d="m23.184 726.17l-14.884-2.8362 4.619-36.196 14.884 2.8362z" fill="#cfe2f3"/>
  <path d="m40.543 653.81l11.476 10.733-22.876 26.824-11.476-10.733z" fill="#cfe2f3"/>
  <path d="m-14.646 562.69l15.222 0.28802-29.9 206.13-15.222-0.28802z" fill="#cfe2f3"/>
  <path d="m-49.914 575.52l7.3111-15.043 31.93 13.355-7.3111 15.043z" fill="#cfe2f3"/>
  <path d="m24.348 560.39l5.1046 14.31-34.174 17.215-5.1046-14.31z" fill="#cfe2f3"/>
  <path d="m-69.618 770.2l-4.1923-14.777 34.882-15.069 4.1923 14.777z" fill="#cfe2f3"/>
  <path d="m-36.771 751.53l11.797-11.912 23.364 25.467-11.797 11.912z" fill="#cfe2f3"/>
  <path d="m-51.385 602.44l6.0667-15.516 33.326 10.167-6.0667 15.516z" fill="#cfe2f3"/>
  <path d="m22.913 587.74l2.5637 15.348-35.742 11.219-2.5637-15.348z" fill="#cfe2f3"/>
  <path d="m-64.855 742.01l-4.0298-14.815 34.978-14.688 4.0298 14.815z" fill="#cfe2f3"/>
  <path d="m8.6781 719.93l-4.6671 15.868-34.561-6.5499 4.6671-15.868z" fill="#cfe2f3"/>
  <path d="m5.4052 357.39l9.6543 13.01-204.91 100.61-9.6544-13.01z" fill="#cfe2f3"/>
  <path d="m-29.104 335.48l18.294-3.0177 8.7799 35.074-18.294 3.0177z" fill="#cfe2f3"/>
  <path d="m32.871 388.86l-9.5494 13.039-37.743-18.306 9.5494-13.039z" fill="#cfe2f3"/>
  <path d="m-217.08 437.7l10.564-12.555 36.274 20.213-10.564 12.555z" fill="#cfe2f3"/>
  <path d="m-178.89 454l18.399 2.6761-7.6955 35.245-18.399-2.6761z" fill="#cfe2f3"/>
  <path d="m-54.28 350.67l17.91-4.3558 12.558 34.305-17.91 4.3558z" fill="#cfe2f3"/>
  <path d="m7.3322 404.34l-12.138 11.53-33.37-23.288 12.138-11.53z" fill="#cfe2f3"/>
  <path d="m-188.62 424.51l10.704-12.441 35.994 20.526-10.704 12.441z" fill="#cfe2f3"/>
  <path d="m-120.87 473.03l-17.315 5.7508-16.615-33.138 17.315-5.7508z" fill="#cfe2f3"/>
  <path d="m-166.9 361.33l7.818-12.917 164.34 113.1-7.818 12.917z" fill="#cfe2f3"/>
  <path d="m-173.29 396.98l-9.4437-12.647 27.485-21.682 9.4437 12.647z" fill="#cfe2f3"/>
  <path d="m-149.52 326.95l14.979 1.7012-2.0224 36.579-14.979-1.7012z" fill="#cfe2f3"/>
  <path d="m-13.817 496.5l-14.932-2.6809 4.2404-36.276 14.932 2.6809z" fill="#cfe2f3"/>
  <path d="m-13.725 460.43l-4.4912-15.161 33.757-9.2038 4.4912 15.161z" fill="#cfe2f3"/>
  <path d="m-150.61 409.67l-10.474-11.782 25.407-24.232 10.474 11.782z" fill="#cfe2f3"/>
  <path d="m-126.46 339.79l14.618 4.3183-8.0147 35.378-14.618-4.3183z" fill="#cfe2f3"/>
  <path d="m-35.958 480.45l-14.884-2.8362 4.619-36.196 14.884 2.8362z" fill="#cfe2f3"/>
  <path d="m-18.599 408.09l11.476 10.733-22.876 26.824-11.476-10.733z" fill="#cfe2f3"/>
  <path d="m-73.787 316.97l15.222 0.28802-29.9 206.13-15.222-0.28802z" fill="#cfe2f3"/>
  <path d="m-109.06 329.8l7.3111-15.043 31.93 13.355-7.3111 15.043z" fill="#cfe2f3"/>
  <path d="m-34.793 314.67l5.1046 14.31-34.174 17.215-5.1046-14.31z" fill="#cfe2f3"/>
  <path d="m-128.76 524.48l-4.1923-14.777 34.882-15.069 4.1923 14.777z" fill="#cfe2f3"/>
  <path d="m-95.913 505.81l11.797-11.912 23.364 25.467-11.797 11.912z" fill="#cfe2f3"/>
  <path d="m-110.53 356.72l6.0667-15.516 33.326 10.167-6.0667 15.516z" fill="#cfe2f3"/>
  <path d="m-36.229 342.01l2.5637 15.348-35.742 11.219-2.5637-15.348z" fill="#cfe2f3"/>
  <path d="m-124 496.29l-4.0298-14.815 34.978-14.688 4.0298 14.815z" fill="#cfe2f3"/>
  <path d="m-50.464 474.21l-4.6671 15.868-34.561-6.5499 4.6671-15.868z" fill="#cfe2f3"/>
  <path d="m493 479.45l6.956 9.7253-147.64 75.206-6.956-9.7253z" fill="#cfe2f3"/>
  <path d="m468.14 463.08l13.181-2.2558 6.3259 26.218-13.181 2.2558z" fill="#cfe2f3"/>
  <path d="m512.79 502.98l-6.8803 9.7466-27.194-13.684 6.8804-9.7466z" fill="#cfe2f3"/>
  <path d="m332.7 539.49l7.6112-9.3848 26.135 15.109-7.6112 9.3848z" fill="#cfe2f3"/>
  <path d="m360.22 551.67l13.257 2.0004-5.5446 26.346-13.257-2.0004z" fill="#cfe2f3"/>
  <path d="m450 474.43l12.904-3.256 9.0478 25.643-12.904 3.256z" fill="#cfe2f3"/>
  <path d="m494.39 514.55l-8.7454 8.6187-24.043-17.408 8.7454-8.6187z" fill="#cfe2f3"/>
  <path d="m353.2 529.63l7.712-9.2997 25.934 15.344-7.712 9.2997z" fill="#cfe2f3"/>
  <path d="m402.02 565.9l-12.475 4.2987-11.971-24.771 12.475-4.2987z" fill="#cfe2f3"/>
  <path d="m368.85 482.4l5.6329-9.6553 118.41 84.542-5.6329 9.6553z" fill="#cfe2f3"/>
  <path d="m364.25 509.05l-6.8042-9.4539 19.803-16.208 6.8041 9.4539z" fill="#cfe2f3"/>
  <path d="m381.38 456.7l10.792 1.2717-1.4571 27.343-10.792-1.2717z" fill="#cfe2f3"/>
  <path d="m479.15 583.44l-10.758-2.004 3.0552-27.116 10.758 2.004z" fill="#cfe2f3"/>
  <path d="m479.22 556.48l-3.2359-11.333 24.322-6.8799 3.2359 11.333z" fill="#cfe2f3"/>
  <path d="m380.59 518.53l-7.5463-8.8072 18.306-18.113 7.5463 8.8072z" fill="#cfe2f3"/>
  <path d="m397.99 466.3l10.532 3.2279-5.7746 26.445-10.532-3.2279z" fill="#cfe2f3"/>
  <path d="m463.2 571.44l-10.724-2.1201 3.328-27.057 10.724 2.1201z" fill="#cfe2f3"/>
  <path d="m475.71 517.35l8.2682 8.0228-16.482 20.051-8.2682-8.0228z" fill="#cfe2f3"/>
  <path d="m435.94 449.24l10.967 0.2153-21.543 154.08-10.967-0.21527z" fill="#cfe2f3"/>
  <path d="m410.53 458.83l5.2676-11.244 23.005 9.9829-5.2676 11.244z" fill="#cfe2f3"/>
  <path d="m464.04 447.52l3.6779 10.697-24.622 12.868-3.6778-10.697z" fill="#cfe2f3"/>
  <path d="m396.33 604.36l-3.0206-11.046 25.133-11.264 3.0206 11.046z" fill="#cfe2f3"/>
  <path d="m420 590.4l8.5-8.904 16.834 19.037-8.5 8.904z" fill="#cfe2f3"/>
  <path d="m409.47 478.95l4.371-11.598 24.012 7.5997-4.371 11.598z" fill="#cfe2f3"/>
  <path d="m463 467.96l1.8471 11.473-25.752 8.3865-1.8471-11.473z" fill="#cfe2f3"/>
  <path d="m399.77 583.28l-2.9035-11.074 25.202-10.98 2.9035 11.074z" fill="#cfe2f3"/>
  <path d="m452.75 566.78l-3.3626 11.861-24.901-4.896 3.3626-11.861z" fill="#cfe2f3"/>
  <path d="m485.76 115.9l0.22354-9.0209 124.07 24.791-0.22357 9.0209z" fill="#9fc6f3"/>
  <path d="m493.37 137.26l-9.0374-4.8521 8.1498-18.486 9.0374 4.8521z" fill="#9fc6f3"/>
  <path d="m484.5 92.684l8.6368-2.5388 10.258 20.863-8.6368 2.5388z" fill="#9fc6f3"/>
  <path d="m610.58 155.61l-8.9153 1.9816-8.9625-21.21 8.9152-1.9816z" fill="#9fc6f3"/>
  <path d="m599.44 135.48l-7.1365-7.4065 15.418-12.99 7.1365 7.4065z" fill="#9fc6f3"/>
  <path d="m509.58 139.05l-9.3264-4.13 6.2338-19.424 9.3264 4.13z" fill="#9fc6f3"/>
  <path d="m500.97 94.471l9.2537-0.99586 6.6408 21.588-9.2537 0.99586z" fill="#9fc6f3"/>
  <path d="m593.62 151.82l-8.9376 1.8839-8.733-21.254 8.9376-1.8839z" fill="#9fc6f3"/>
  <path d="m580.56 107.44l9.5432 3.3117-4.0591 20.28-9.5432-3.3117z" fill="#9fc6f3"/>
  <path d="m562.51 172.43l-7.8374 3.0703-33.248-105.62 7.8374-3.0703z" fill="#9fc6f3"/>
  <path d="m577.5 158.81l-0.19153 8.789-19.441 0.29686 0.19153-8.789z" fill="#9fc6f3"/>
  <path d="m543.15 181.76l-5.9732-5.8186 13.391-15.499 5.9732 5.8185z" fill="#9fc6f3"/>
  <path d="m541.74 60.855l5.6176 6.236-14.258 14.614-5.6176-6.236z" fill="#9fc6f3"/>
  <path d="m529.36 76.778l-3.2183 8.2263-17.919-7.3449 3.2183-8.2263z" fill="#9fc6f3"/>
  <path d="m571.91 145.53l0.55493 8.7546-19.403 2.1274-0.55493-8.7546z" fill="#9fc6f3"/>
  <path d="m537.45 168.28l-4.9205-6.8543 15.603-12.941 4.9205 6.8543z" fill="#9fc6f3"/>
  <path d="m545.94 75.441l5.5435 6.2885-14.397 14.451-5.5435-6.2885z" fill="#9fc6f3"/>
  <path d="m513.6 101.58l-1.3522-8.6292 19.182-4.1303 1.3522 8.6293z" fill="#9fc6f3"/>
  <path d="m506.6 160.56l-6.5627-5.2755 83.558-81.078 6.5627 5.2755z" fill="#9fc6f3"/>
  <path d="m526.42 166.81l-8.3425 4.1823-9.4064-16.707 8.3424-4.1823z" fill="#9fc6f3"/>
  <path d="m488.75 148.39l2.6588-8.0571 20.84 3.9416-2.6589 8.0571z" fill="#9fc6f3"/>
  <path d="m601.6 87.347l-3.2178 7.9553-20.417-5.1307 3.2178-7.9553z" fill="#9fc6f3"/>
  <path d="m580.84 84.501l-9.2351 1.2799-1.5167-19.168 9.2351-1.2799z" fill="#9fc6f3"/>
  <path d="m536.26 155.4l-7.9596 4.8125-11.108-15.769 7.9597-4.8125z" fill="#9fc6f3"/>
  <path d="m498.73 136.78l4.1256-7.6569 19.477 7.1245-4.1255 7.6569z" fill="#9fc6f3"/>
  <path d="m589.88 98.208l-3.3018 7.9171-20.328-5.3315 3.3019-7.9171z" fill="#9fc6f3"/>
  <path d="m550.15 83.107l7.4676-5.4416 12.884 14.586-7.4676 5.4416z" fill="#9fc6f3"/>
  <path d="m640.08 141.65l-0.36145-16.196 225.36 36.289 0.36145 16.196z" fill="#cfe2f3"/>
  <path d="m655.58 179.47l-16.674-8.1077 13.101-33.697 16.674 8.1077z" fill="#cfe2f3"/>
  <path d="m635.85 100.1l15.327-5.1234 20.225 36.747-15.327 5.1234z" fill="#cfe2f3"/>
  <path d="m868.06 204.66l-15.875 4.1423-17.924-37.455 15.875-4.1423z" fill="#cfe2f3"/>
  <path d="m846.31 169.29l-13.469-12.815 26.645-24.317 13.469 12.815z" fill="#cfe2f3"/>
  <path d="m684.91 181.62l-17.133-6.7934 9.5734-35.253 17.133 6.7934z" fill="#cfe2f3"/>
  <path d="m665.64 102.22l16.568-2.3964 13.778 38.287-16.568 2.3964z" fill="#cfe2f3"/>
  <path d="m837.21 198.98l-15.924 3.9686-17.514-37.549 15.924-3.9686z" fill="#cfe2f3"/>
  <path d="m809.95 120.23l17.453 5.3113-5.5876 36.644-17.453-5.3113z" fill="#cfe2f3"/>
  <path d="m782.98 237.99l-13.844 6.0242-68.773-187.26 13.844-6.0242z" fill="#cfe2f3"/>
  <path d="m808.79 212.58l0.39935 15.778-34.959 1.8142-0.39941-15.778z" fill="#cfe2f3"/>
  <path d="m748.93 256l-11.242-10.043 22.786-28.684 11.241 10.043z" fill="#cfe2f3"/>
  <path d="m736.14 39.229l10.637 10.815-24.421 27.154-10.637-10.815z" fill="#cfe2f3"/>
  <path d="m715.23 68.606l-5.0949 14.968-32.867-11.994 5.0949-14.968z" fill="#cfe2f3"/>
  <path d="m797.62 189.13l1.7398 15.667-34.736 5.0953-1.7398-15.667z" fill="#cfe2f3"/>
  <path d="m737.52 232.2l-9.4348-11.971 26.982-24.241 9.4348 11.971z" fill="#cfe2f3"/>
  <path d="m744.94 65.116l10.508 10.915-24.684 26.871-10.508-10.915z" fill="#cfe2f3"/>
  <path d="m688.97 114.14l-3.1638-15.39 34.168-8.6733 3.1639 15.39z" fill="#cfe2f3"/>
  <path d="m681.35 220.39l-12.256-9.0304 143.5-150.94 12.256 9.0303z" fill="#cfe2f3"/>
  <path d="m717.55 230.3l-14.658 8.052-18.341-29.348 14.658-8.052z" fill="#cfe2f3"/>
  <path d="m648.2 199.74l4.1025-14.628 37.836 5.6964-4.1025 14.628z" fill="#cfe2f3"/>
  <path d="m846.12 82.803l-5.1169 14.482-37.174-7.8572 5.1169-14.482z" fill="#cfe2f3"/>
  <path d="m808.52 79.066l-16.51 2.9046-4.3521-34.284 16.51-2.9046z" fill="#cfe2f3"/>
  <path d="m734.3 209.18l-13.916 9.1572-21.323-27.553 13.916-9.1572z" fill="#cfe2f3"/>
  <path d="m665.18 178.25l6.7758-14.007 35.652 11.496-6.7758 14.007z" fill="#cfe2f3"/>
  <path d="m825.94 103.06l-5.2714 14.419-37.033-8.2232 5.2715-14.419z" fill="#cfe2f3"/>
  <path d="m753.18 78.59l12.977-10.253 24.42 25.314-12.977 10.253z" fill="#cfe2f3"/>
  <path d="m147.61 7.6663l0.72086 8.9946-125.99-11.686-0.72086-8.9946z" fill="#cfe2f3"/>
  <path d="m137.81-12.783l9.4959 3.8808-6.173 19.236-9.4959-3.8808z" fill="#cfe2f3"/>
  <path d="m151.29 30.62l-8.3248 3.4276-12.384-19.676 8.3248-3.4276z" fill="#cfe2f3"/>
  <path d="m19.309-18.781l8.66-2.9025 11.132 20.157-8.66 2.9025z" fill="#cfe2f3"/>
  <path d="m32.495 0.068792l7.8724 6.6198-13.976 14.53-7.8724-6.6198z" fill="#cfe2f3"/>
  <path d="m121.49-12.872l9.7079 3.1325-4.1693 19.968-9.708-3.1325z" fill="#cfe2f3"/>
  <path d="m134.72 30.563l-9.0996 1.9576-8.8622-20.776 9.0996-1.9576z" fill="#cfe2f3"/>
  <path d="m36.579-16.785l8.6924-2.8077 10.908 20.224-8.6924 2.8077z" fill="#cfe2f3"/>
  <path d="m54.208 25.986l-9.838-2.296 1.9169-20.592 9.838 2.296z" fill="#cfe2f3"/>
  <path d="m65.361-40.531l7.4741-3.8726 44.112 101.56-7.4741 3.8726z" fill="#cfe2f3"/>
  <path d="m51.883-25.424l-0.72841-8.7607 19.305-2.3272 0.72842 8.7607z" fill="#cfe2f3"/>
  <path d="m83.643-51.833l6.5493 5.1622-11.699 16.813-6.5493-5.1622z" fill="#cfe2f3"/>
  <path d="m97.693 68.255l-6.2392-5.6145 12.653-16.024 6.2392 5.6145z" fill="#cfe2f3"/>
  <path d="m108.33 51.127l2.3408-8.5173 18.59 5.4315-2.3408 8.5173z" fill="#cfe2f3"/>
  <path d="m58.826-12.8l-1.4673-8.6484 19.076-4.1437 1.4673 8.6484z" fill="#cfe2f3"/>
  <path d="m90.725-39.024l5.6106 6.3023-14.166 14.5-5.6106-6.3023z" fill="#cfe2f3"/>
  <path d="m91.987 54.188l-6.1711-5.6745 12.808-15.876 6.1711 5.6745z" fill="#cfe2f3"/>
  <path d="m121.42 24.812l2.2471 8.4404-18.646 6.1124-2.2471-8.4404z" fill="#cfe2f3"/>
  <path d="m122.22-34.574l7.0789 4.5605-74.631 89.365-7.0789-4.5605z" fill="#cfe2f3"/>
  <path d="m101.85-38.721l7.8601-5.0312 11.102 15.632-7.8601 5.0312z" fill="#cfe2f3"/>
  <path d="m141.24-24.337l-1.8021 8.2907-21.14-1.7417 1.8021-8.2907z" fill="#cfe2f3"/>
  <path d="m35.378 48.166l2.3686-8.2478 20.843 2.9685-2.3686 8.2478z" fill="#cfe2f3"/>
  <path d="m56.323 48.827l9.0515-2.2381 3.5127 18.904-9.0515 2.2381z" fill="#cfe2f3"/>
  <path d="m93.249-26.342l7.4135-5.6179 12.696 14.521-7.4135 5.6179z" fill="#cfe2f3"/>
  <path d="m132.53-11.745l-3.3027 8.046-20.116-5.0496 3.3028-8.046z" fill="#cfe2f3"/>
  <path d="m45.902 36.14l2.4562-8.2186 20.776 3.1774-2.4562 8.2186z" fill="#cfe2f3"/>
  <path d="m86.994 47.005l-6.8584 6.1921-14.34-13.159 6.8584-6.1921z" fill="#cfe2f3"/>
  <path d="m43.221 154.63l-4.9309 7.5572-92.535-86.292 4.9309-7.5572z" fill="#cfe2f3"/>
  <path d="m47.971 132.46l5.1396 8.8774-16.649 11.444-5.1396-8.8774z" fill="#cfe2f3"/>
  <path d="m32.093 175.04l-8.6829-2.379 2.2365-23.14 8.6829 2.379z" fill="#cfe2f3"/>
  <path d="m-42.114 55.25l8.627 2.9993-3.5207 22.755-8.627-2.9993z" fill="#cfe2f3"/>
  <path d="m-43.21 78.228l2.1798 10.052-19.945 2.9487-2.1798-10.052z" fill="#cfe2f3"/>
  <path d="m35.121 122.41l5.765 8.415-15.512 13.249-5.765-8.415z" fill="#cfe2f3"/>
  <path d="m19.019 164.87l-8.3969-4.0158 5.695-21.857 8.3969 4.0158z" fill="#cfe2f3"/>
  <path d="m-29.671 67.391l8.5946 3.0942-3.7391 22.672-8.5946-3.0942z" fill="#cfe2f3"/>
  <path d="m-41.882 112.01l-6.3794-7.8327 14.111-15.12 6.3794 7.8327z" fill="#cfe2f3"/>
  <path d="m7.6249 66.205l8.282 1.5066-27.215 107.33-8.282-1.5067z" fill="#cfe2f3"/>
  <path d="m-12.279 69.915l4.7819-7.3767 16.697 9.9641-4.7819 7.3767z" fill="#cfe2f3"/>
  <path d="m29.002 68.442l2.0245 8.0893-19.539 6.1482-2.0245-8.0893z" fill="#cfe2f3"/>
  <path d="m-33.33 172.05l-1.5025-8.2575 19.812-4.9401 1.5025 8.2575z" fill="#cfe2f3"/>
  <path d="m-14.437 165l7.0614-5.3073 11.386 15.666-7.0614 5.3073z" fill="#cfe2f3"/>
  <path d="m-14.506 84.148l4.1286-7.7398 17.627 8.387-4.1286 7.7398z" fill="#cfe2f3"/>
  <path d="m26.771 82.908l0.58453 8.4173-20.077 2.8097-0.58453-8.4173z" fill="#cfe2f3"/>
  <path d="m-29.241 157.43l-1.4119-8.2633 19.844-4.7286 1.4119 8.2633z" fill="#cfe2f3"/>
  <path d="m12.01 152.18l-3.3844 8.0521-18.491-6.5667 3.3844-8.0521z" fill="#cfe2f3"/>
  <path d="m48.965 105.69l2.8115 7.9371-113.7 25.066-2.8115-7.9371z" fill="#cfe2f3"/>
  <path d="m35.387 89.951l9.2961 0.82605-0.77649 19.157-9.2961-0.82605z" fill="#cfe2f3"/>
  <path d="m57.758 125.42l-6.4965 5.4574-15.66-14.305 6.4965-5.4574z" fill="#cfe2f3"/>
  <path d="m-70.346 118.04l6.9186-5.0771 14.675 15.094-6.9186 5.0771z" fill="#cfe2f3"/>
  <path d="m-54.179 131.38l8.5303 3.7645-8.783 17.105-8.5303-3.7645z" fill="#cfe2f3"/>
  <path d="m21.011 94.484l9.3016 0.088753 1.164 19.253-9.3016-0.088745z" fill="#cfe2f3"/>
  <path d="m43.164 130.06l-7.5342 4.3461-12.828-16.297 7.5342-4.3461z" fill="#cfe2f3"/>
  <path d="m-54.665 114.97l6.97-5.0004 14.495 15.219-6.97 5.0004z" fill="#cfe2f3"/>
  <path d="m-28.798 148.69l-9.2135 0.70506-3.2973-19.18 9.2135-0.70506z" fill="#cfe2f3"/>
  <path d="m40.867 248.52l0.72086 8.9946-125.99-11.686-0.72086-8.9946z" fill="#9fc6f3"/>
  <path d="m31.063 228.07l9.4959 3.8808-6.173 19.236-9.4959-3.8808z" fill="#9fc6f3"/>
  <path d="m44.545 271.47l-8.3248 3.4276-12.384-19.676 8.3248-3.4276z" fill="#9fc6f3"/>
  <path d="m-87.434 222.07l8.66-2.9026 11.132 20.157-8.66 2.9026z" fill="#9fc6f3"/>
  <path d="m-74.248 240.92l7.8724 6.6198-13.976 14.53-7.8724-6.6198z" fill="#9fc6f3"/>
  <path d="m14.751 227.98l9.708 3.1324-4.1693 19.968-9.708-3.1324z" fill="#9fc6f3"/>
  <path d="m27.978 271.42l-9.0996 1.9576-8.8622-20.775 9.0996-1.9576z" fill="#9fc6f3"/>
  <path d="m-70.164 224.07l8.6924-2.8077 10.908 20.224-8.6924 2.8077z" fill="#9fc6f3"/>
  <path d="m-52.535 266.84l-9.838-2.296 1.9169-20.592 9.838 2.2961z" fill="#9fc6f3"/>
  <path d="m-41.381 200.32l7.4741-3.8726 44.112 101.56-7.4741 3.8726z" fill="#9fc6f3"/>
  <path d="m-54.86 215.43l-0.72841-8.7607 19.305-2.3272 0.72841 8.7607z" fill="#9fc6f3"/>
  <path d="m-23.1 189.02l6.5493 5.1622-11.699 16.813-6.5493-5.1622z" fill="#9fc6f3"/>
  <path d="m-9.0501 309.11l-6.2392-5.6145 12.653-16.024 6.2392 5.6145z" fill="#9fc6f3"/>
  <path d="m1.5884 291.98l2.3408-8.5174 18.59 5.4315-2.3408 8.5173z" fill="#9fc6f3"/>
  <path d="m-47.917 228.05l-1.4673-8.6484 19.076-4.1437 1.4673 8.6484z" fill="#9fc6f3"/>
  <path d="m-16.018 201.83l5.6106 6.3022-14.166 14.5-5.6106-6.3022z" fill="#9fc6f3"/>
  <path d="m-14.756 295.04l-6.1711-5.6745 12.808-15.876 6.1711 5.6744z" fill="#9fc6f3"/>
  <path d="m14.673 265.66l2.2471 8.4404-18.647 6.1124-2.2471-8.4404z" fill="#9fc6f3"/>
  <path d="m15.473 206.28l7.0789 4.5605-74.631 89.365-7.0789-4.5605z" fill="#9fc6f3"/>
  <path d="m-4.8927 202.13l7.8601-5.0312 11.102 15.632-7.8601 5.0312z" fill="#9fc6f3"/>
  <path d="m34.5 216.52l-1.8021 8.2907-21.14-1.7417 1.8021-8.2907z" fill="#9fc6f3"/>
  <path d="m-71.364 289.02l2.3686-8.2478 20.843 2.9685-2.3686 8.2478z" fill="#9fc6f3"/>
  <path d="m-50.42 289.68l9.0515-2.2381 3.5127 18.904-9.0515 2.2381z" fill="#9fc6f3"/>
  <path d="m-13.494 214.51l7.4135-5.6179 12.696 14.521-7.4135 5.6179z" fill="#9fc6f3"/>
  <path d="m25.79 229.11l-3.3028 8.046-20.116-5.0496 3.3028-8.046z" fill="#9fc6f3"/>
  <path d="m-60.841 276.99l2.4562-8.2186 20.776 3.1774-2.4562 8.2186z" fill="#9fc6f3"/>
  <path d="m-19.749 287.86l-6.8584 6.1921-14.34-13.159 6.8584-6.1921z" fill="#9fc6f3"/>
  <path d="m663.35 495.02l0.72089 8.9946-125.99-11.686-0.72089-8.9947z" fill="#9fc6f3"/>
  <path d="m653.55 474.57l9.4959 3.8808-6.173 19.236-9.4959-3.8808z" fill="#9fc6f3"/>
  <path d="m667.03 517.97l-8.3248 3.4276-12.384-19.676 8.3248-3.4276z" fill="#9fc6f3"/>
  <path d="m535.05 468.57l8.66-2.9026 11.132 20.157-8.66 2.9025z" fill="#9fc6f3"/>
  <path d="m548.24 487.42l7.8724 6.6198-13.977 14.53-7.8724-6.6198z" fill="#9fc6f3"/>
  <path d="m637.23 474.48l9.708 3.1324-4.1694 19.968-9.7079-3.1325z" fill="#9fc6f3"/>
  <path d="m650.46 517.92l-9.0997 1.9576-8.8621-20.776 9.0996-1.9576z" fill="#9fc6f3"/>
  <path d="m552.32 470.57l8.6924-2.8077 10.908 20.224-8.6924 2.8077z" fill="#9fc6f3"/>
  <path d="m569.95 513.34l-9.838-2.2961 1.9169-20.592 9.838 2.2961z" fill="#9fc6f3"/>
  <path d="m581.1 446.82l7.4741-3.8726 44.112 101.56-7.4741 3.8726z" fill="#9fc6f3"/>
  <path d="m567.62 461.93l-0.72845-8.7607 19.305-2.3272 0.72839 8.7607z" fill="#9fc6f3"/>
  <path d="m599.38 435.52l6.5494 5.1622-11.699 16.813-6.5493-5.1622z" fill="#9fc6f3"/>
  <path d="m613.43 555.61l-6.2392-5.6145 12.653-16.024 6.2392 5.6145z" fill="#9fc6f3"/>
  <path d="m624.07 538.48l2.3409-8.5173 18.59 5.4315-2.3408 8.5173z" fill="#9fc6f3"/>
  <path d="m574.57 474.55l-1.4673-8.6484 19.076-4.1437 1.4673 8.6484z" fill="#9fc6f3"/>
  <path d="m606.47 448.33l5.6106 6.3023-14.166 14.5-5.6107-6.3022z" fill="#9fc6f3"/>
  <path d="m607.73 541.54l-6.1711-5.6744 12.808-15.876 6.1711 5.6744z" fill="#9fc6f3"/>
  <path d="m637.16 512.17l2.2471 8.4404-18.647 6.1124-2.2471-8.4404z" fill="#9fc6f3"/>
  <path d="m637.96 452.78l7.0789 4.5605-74.631 89.365-7.0789-4.5605z" fill="#9fc6f3"/>
  <path d="m617.59 448.63l7.8601-5.0312 11.102 15.632-7.8601 5.0312z" fill="#9fc6f3"/>
  <path d="m656.98 463.02l-1.8021 8.2907-21.14-1.7417 1.8021-8.2907z" fill="#9fc6f3"/>
  <path d="m551.12 535.52l2.3686-8.2478 20.843 2.9684-2.3687 8.2479z" fill="#9fc6f3"/>
  <path d="m572.06 536.18l9.0515-2.2381 3.5127 18.904-9.0515 2.2381z" fill="#9fc6f3"/>
  <path d="m608.99 461.01l7.4136-5.6179 12.696 14.521-7.4136 5.6179z" fill="#9fc6f3"/>
  <path d="m648.27 475.61l-3.3027 8.046-20.116-5.0496 3.3028-8.046z" fill="#9fc6f3"/>
  <path d="m561.64 523.49l2.4562-8.2186 20.776 3.1774-2.4562 8.2186z" fill="#9fc6f3"/>
  <path d="m602.73 534.36l-6.8584 6.1921-14.34-13.159 6.8584-6.1921z" fill="#9fc6f3"/>
  <path d="m446.86 682.02l-0.36145-16.196 225.36 36.289 0.36145 16.196z" fill="#cfe2f3"/>
  <path d="m462.37 719.84l-16.674-8.1077 13.101-33.697 16.674 8.1077z" fill="#cfe2f3"/>
  <path d="m442.63 640.47l15.327-5.1234 20.225 36.747-15.327 5.1234z" fill="#cfe2f3"/>
  <path d="m674.84 745.03l-15.875 4.1423-17.924-37.455 15.875-4.1423z" fill="#cfe2f3"/>
  <path d="m653.09 709.66l-13.469-12.815 26.645-24.317 13.469 12.815z" fill="#cfe2f3"/>
  <path d="m491.69 721.99l-17.133-6.7933 9.5734-35.253 17.133 6.7933z" fill="#cfe2f3"/>
  <path d="m472.42 642.59l16.568-2.3964 13.778 38.287-16.568 2.3964z" fill="#cfe2f3"/>
  <path d="m643.99 739.35l-15.924 3.9686-17.515-37.549 15.924-3.9685z" fill="#cfe2f3"/>
  <path d="m616.73 660.6l17.453 5.3113-5.5875 36.644-17.453-5.3113z" fill="#cfe2f3"/>
  <path d="m589.76 778.36l-13.844 6.0242-68.773-187.26 13.844-6.0242z" fill="#cfe2f3"/>
  <path d="m615.57 752.95l0.39935 15.778-34.959 1.8141-0.39935-15.778z" fill="#cfe2f3"/>
  <path d="m555.71 796.37l-11.241-10.043 22.786-28.684 11.241 10.043z" fill="#cfe2f3"/>
  <path d="m542.93 579.6l10.637 10.815-24.421 27.154-10.637-10.815z" fill="#cfe2f3"/>
  <path d="m522.01 608.98l-5.0949 14.968-32.867-11.994 5.0949-14.968z" fill="#cfe2f3"/>
  <path d="m604.4 729.5l1.7398 15.667-34.736 5.0953-1.7399-15.667z" fill="#cfe2f3"/>
  <path d="m544.31 772.57l-9.4348-11.971 26.982-24.241 9.4349 11.971z" fill="#cfe2f3"/>
  <path d="m551.73 605.49l10.508 10.915-24.684 26.871-10.508-10.915z" fill="#cfe2f3"/>
  <path d="m495.75 654.51l-3.1638-15.39 34.168-8.6733 3.1639 15.39z" fill="#cfe2f3"/>
  <path d="m488.14 760.76l-12.256-9.0303 143.5-150.94 12.256 9.0303z" fill="#cfe2f3"/>
  <path d="m524.33 770.67l-14.658 8.052-18.341-29.348 14.658-8.052z" fill="#cfe2f3"/>
  <path d="m454.98 740.11l4.1025-14.628 37.836 5.6964-4.1025 14.628z" fill="#cfe2f3"/>
  <path d="m652.9 623.17l-5.1169 14.482-37.174-7.8572 5.1169-14.482z" fill="#cfe2f3"/>
  <path d="m615.31 619.44l-16.51 2.9045-4.3522-34.284 16.51-2.9046z" fill="#cfe2f3"/>
  <path d="m541.09 749.55l-13.916 9.1572-21.323-27.553 13.916-9.1572z" fill="#cfe2f3"/>
  <path d="m471.96 718.62l6.7758-14.007 35.652 11.496-6.7758 14.007z" fill="#cfe2f3"/>
  <path d="m632.73 643.43l-5.2714 14.419-37.033-8.2232 5.2714-14.419z" fill="#cfe2f3"/>
  <path d="m559.96 618.96l12.977-10.253 24.42 25.314-12.977 10.253z" fill="#cfe2f3"/>
  <path d="m446.86 322.64l-0.36145-16.196 225.36 36.289 0.36145 16.196z" fill="#cfe2f3"/>
  <path d="m462.37 360.46l-16.674-8.1077 13.101-33.697 16.674 8.1077z" fill="#cfe2f3"/>
  <path d="m442.63 281.09l15.327-5.1234 20.225 36.747-15.327 5.1234z" fill="#cfe2f3"/>
  <path d="m674.84 385.65l-15.875 4.1423-17.924-37.455 15.875-4.1423z" fill="#cfe2f3"/>
  <path d="m653.09 350.28l-13.469-12.815 26.645-24.317 13.469 12.815z" fill="#cfe2f3"/>
  <path d="m491.69 362.61l-17.133-6.7934 9.5734-35.253 17.133 6.7934z" fill="#cfe2f3"/>
  <path d="m472.42 283.21l16.568-2.3964 13.778 38.287-16.568 2.3964z" fill="#cfe2f3"/>
  <path d="m643.99 379.97l-15.924 3.9686-17.515-37.549 15.924-3.9685z" fill="#cfe2f3"/>
  <path d="m616.73 301.22l17.453 5.3113-5.5875 36.644-17.453-5.3113z" fill="#cfe2f3"/>
  <path d="m589.76 418.98l-13.844 6.0242-68.773-187.26 13.844-6.0242z" fill="#cfe2f3"/>
  <path d="m615.57 393.57l0.39935 15.778-34.959 1.8142-0.39935-15.778z" fill="#cfe2f3"/>
  <path d="m555.71 437l-11.241-10.043 22.786-28.684 11.241 10.043z" fill="#cfe2f3"/>
  <path d="m542.93 220.22l10.637 10.815-24.421 27.154-10.637-10.815z" fill="#cfe2f3"/>
  <path d="m522.01 249.6l-5.0949 14.968-32.867-11.994 5.0949-14.968z" fill="#cfe2f3"/>
  <path d="m604.4 370.12l1.7398 15.667-34.736 5.0953-1.7399-15.667z" fill="#cfe2f3"/>
  <path d="m544.31 413.19l-9.4348-11.971 26.982-24.241 9.4349 11.971z" fill="#cfe2f3"/>
  <path d="m551.73 246.11l10.508 10.915-24.684 26.871-10.508-10.915z" fill="#cfe2f3"/>
  <path d="m495.75 295.13l-3.1638-15.39 34.168-8.6733 3.1639 15.39z" fill="#cfe2f3"/>
  <path d="m488.14 401.39l-12.256-9.0303 143.5-150.94 12.256 9.0304z" fill="#cfe2f3"/>
  <path d="m524.33 411.29l-14.658 8.052-18.341-29.348 14.658-8.052z" fill="#cfe2f3"/>
  <path d="m454.98 380.73l4.1025-14.628 37.836 5.6964-4.1025 14.628z" fill="#cfe2f3"/>
  <path d="m652.9 263.79l-5.1169 14.482-37.174-7.8572 5.1169-14.482z" fill="#cfe2f3"/>
  <path d="m615.31 260.06l-16.51 2.9046-4.3522-34.284 16.51-2.9046z" fill="#cfe2f3"/>
  <path d="m541.09 390.17l-13.916 9.1572-21.323-27.553 13.916-9.1571z" fill="#cfe2f3"/>
  <path d="m471.96 359.24l6.7758-14.007 35.652 11.496-6.7758 14.007z" fill="#cfe2f3"/>
  <path d="m632.73 284.05l-5.2714 14.419-37.033-8.2232 5.2714-14.419z" fill="#cfe2f3"/>
  <path d="m559.96 259.58l12.977-10.253 24.42 25.314-12.977 10.253z" fill="#cfe2f3"/>
  <path d="m485.49-10.19l-6.8923-14.661 220.73-58.128 6.8923 14.661z" fill="#cfe2f3"/>
  <path d="m514.99 18.102l-18.528-0.65696-1.6754-36.115 18.528 0.65696z" fill="#cfe2f3"/>
  <path d="m464.79-46.467l11.937-10.894 33.378 25.401-11.937 10.894z" fill="#cfe2f3"/>
  <path d="m719.45-44.954l-12.836 10.219-31.561-26.981 12.836-10.219z" fill="#cfe2f3"/>
  <path d="m685.23-68.473l-17.506-6.2588 14.508-33.026 17.506 6.2588z" fill="#cfe2f3"/>
  <path d="m542.67 8.1856l-18.416 0.73064-5.5302-36.108 18.416-0.73064z" fill="#cfe2f3"/>
  <path d="m492.88-56.597l14.176-8.9033 28.108 29.421-14.176 8.9033z" fill="#cfe2f3"/>
  <path d="m688.94-37.648l-12.95 10.08-31.225-27.232 12.95-10.08z" fill="#cfe2f3"/>
  <path d="m632.12-98.597l18.108-2.2155 9.7382 35.765-18.108 2.2155z" fill="#cfe2f3"/>
  <path d="m655.17 19.992l-10.216 11.116-138.74-143.33 10.216-11.116z" fill="#cfe2f3"/>
  <path d="m668.47-13.696l6.7576 14.263-31.225 15.822-6.7576-14.263z" fill="#cfe2f3"/>
  <path d="m631.34 50.255l-14.346-4.6274 9.2104-35.456 14.346 4.6274z" fill="#cfe2f3"/>
  <path d="m531.82-142.75l14.106 5.5784-11.325 34.719-14.106-5.5784z" fill="#cfe2f3"/>
  <path d="m524.61-107.42l1.4064 15.749-34.907 2.3512-1.4064-15.749z" fill="#cfe2f3"/>
  <path d="m648.75-30.611l7.9382 13.618-29.693 18.732-7.9382-13.618z" fill="#cfe2f3"/>
  <path d="m611.27 33.114l-13.475-7.1213 14.847-33.094 13.475 7.1213z" fill="#cfe2f3"/>
  <path d="m550.36-122.65l14.029 5.7211-11.68 34.567-14.029-5.7211z" fill="#cfe2f3"/>
  <path d="m519.04-55.149l-9.1276-12.788 27.724-21.773 9.1276 12.788z" fill="#cfe2f3"/>
  <path d="m555.13 45.076l-14.864-3.2902 70.038-196.14 14.864 3.2902z" fill="#cfe2f3"/>
  <path d="m592.24 39.471l-10.139 13.3-28.659-19.4 10.139-13.3z" fill="#cfe2f3"/>
  <path d="m516.45 39.628l-2.1758-15.035 36.899-10.121 2.1758 15.035z" fill="#cfe2f3"/>
  <path d="m650.02-147.47l1.1894 15.313-37.169 7.8778-1.1894-15.313z" fill="#cfe2f3"/>
  <path d="m614.13-135.65l-13.917 9.3446-17.869-29.58 13.918-9.3446z" fill="#cfe2f3"/>
  <path d="m599 13.375l-9.0125 14.01-30.658-16.551 9.0125-14.01z" fill="#cfe2f3"/>
  <path d="m523.27 13.104l0.51984-15.551 37.251-3.9346-0.5199 15.551z" fill="#cfe2f3"/>
  <path d="m639.78-120.78l1.0226 15.318-37.188 7.4859-1.0226-15.318z" fill="#cfe2f3"/>
  <path d="m563.34-113.66l7.7102-14.632 32.582 13.249-7.7102 14.632z" fill="#cfe2f3"/>
  <path d="m788.64 440.16l-11.938 0.66205 15.62-164.94 11.938-0.66205z" fill="#cfe2f3"/>
  <path d="m815.79 427.95l-5.1589 12.337-25.525-8.7064 5.1589-12.337z" fill="#cfe2f3"/>
  <path d="m758.17 444.27l-4.5418-11.031 26.125-15.628 4.5418 11.031z" fill="#cfe2f3"/>
  <path d="m823.86 272.66l3.8448 11.454-26.762 13.97-3.8447-11.454z" fill="#cfe2f3"/>
  <path d="m798.83 289.36l-8.7928 10.12-19.272-18.797 8.7928-10.12z" fill="#cfe2f3"/>
  <path d="m815.92 406.55l-4.166 12.639-26.499-6.1005 4.166-12.639z" fill="#cfe2f3"/>
  <path d="m758.26 422.53l-2.5902-12.001 27.581-10.972 2.5902 12.001z" fill="#cfe2f3"/>
  <path d="m821.19 295.25l3.7188 11.494-26.851 13.674-3.7188-11.494z" fill="#cfe2f3"/>
  <path d="m764.41 317.04l3.0559-12.836 27.329 3.1648-3.056 12.836z" fill="#cfe2f3"/>
  <path d="m852.68 333.77l5.1332 9.9289-134.83 54.674-5.1332-9.9289z" fill="#cfe2f3"/>
  <path d="m832.64 315.61l11.628-0.67935 3.0718 25.403-11.628 0.67935z" fill="#cfe2f3"/>
  <path d="m867.67 358.11l-6.8571 8.4304-22.304-15.88 6.8571-8.4304z" fill="#cfe2f3"/>
  <path d="m708.27 372.76l7.4571-8.0093 21.256 17.108-7.4571 8.0093z" fill="#cfe2f3"/>
  <path d="m730.99 387.26l11.302 3.3401-7.225 24.221-11.302-3.3401z" fill="#cfe2f3"/>
  <path d="m815.88 324.32l11.48-1.6524 5.483 25.16-11.48 1.6524z" fill="#cfe2f3"/>
  <path d="m850.66 367l-8.3694 7.1628-19.233-19.044 8.3693-7.1628z" fill="#cfe2f3"/>
  <path d="m726.94 365.72l7.5366-7.918 21.06 17.306-7.5366 7.918z" fill="#cfe2f3"/>
  <path d="m765.91 405.25l-11.204 2.6821-8.0963-24.659 11.204-2.6822z" fill="#cfe2f3"/>
  <path d="m844.73 408.18l-6.059 9.1442-118.54-100.74 6.059-9.1442z" fill="#cfe2f3"/>
  <path d="m850.25 381.59l6.6706 10.472-20.757 14.074-6.6706-10.472z" fill="#cfe2f3"/>
  <path d="m831.12 432.82l-11.002-2.6261 2.3301-27.682 11.002 2.626z" fill="#cfe2f3"/>
  <path d="m734.99 291.63l10.945 3.3681-3.958 27.254-10.945-3.3681z" fill="#cfe2f3"/>
  <path d="m734.09 319.09l2.9625 11.947-25.093 4.0125-2.9625-11.947z" fill="#cfe2f3"/>
  <path d="m833.83 369.91l7.4497 9.9044-19.284 16.201-7.4497-9.9044z" fill="#cfe2f3"/>
  <path d="m814.42 420.99l-10.676-4.5874 6.7194-26.235 10.676 4.5873z" fill="#cfe2f3"/>
  <path d="m750.94 305.82l10.906 3.4821-4.2352 27.16-10.906-3.4821z" fill="#cfe2f3"/>
  <path d="m736.48 359.39l-8.2123-9.1941 17.477-18.4 8.2123 9.1941z" fill="#cfe2f3"/>
  <path d="m697.93 649.76l-11.33-11.579 189.35-127.48 11.33 11.579z" fill="#cfe2f3"/>
  <path d="m735.09 666.78l-17.715 5.4722-13.458-33.557 17.715-5.4722z" fill="#cfe2f3"/>
  <path d="m666.45 622.31l7.6912-14.214 39.876 13.014-7.6912 14.214z" fill="#cfe2f3"/>
  <path d="m907.45 540l-8.7618 13.872-38.679-15.103 8.7619-13.872z" fill="#cfe2f3"/>
  <path d="m867.4 529.04l-18.591-0.15442 2.8412-35.962 18.591 0.15445z" fill="#cfe2f3"/>
  <path d="m757.97 648.31l-17.152 6.7456-17.096-32.282 17.152-6.7456z" fill="#cfe2f3"/>
  <path d="m689.65 603.5l10.46-13.07 36.22 18.543-10.46 13.07z" fill="#cfe2f3"/>
  <path d="m881.04 556.93l-8.916 13.778-38.445-15.451 8.916-13.778z" fill="#cfe2f3"/>
  <path d="m807.33 518.05l16.373-8.0469 20.958 30.575-16.373 8.0469z" fill="#cfe2f3"/>
  <path d="m868.1 622.47l-5.9925 13.858-178.16-89.746 5.9925-13.858z" fill="#cfe2f3"/>
  <path d="m869.59 586.28l11.072 11.248-24.287 25.21-11.072-11.248z" fill="#cfe2f3"/>
  <path d="m855.54 658.89l-15.071 0.34729-2.9603-36.514 15.071-0.34729z" fill="#cfe2f3"/>
  <path d="m698.1 509.34l15.157 0.62976 0.72162 36.514-15.157-0.62982z" fill="#cfe2f3"/>
  <path d="m702.9 545.08l6.5068 14.411-32.194 13.699-6.5068-14.411z" fill="#cfe2f3"/>
  <path d="m845.4 576.79l11.975 10.251-21.883 27.454-11.975-10.251z" fill="#cfe2f3"/>
  <path d="m830.95 649.3l-15.068-2.2944 3.1393-36.137 15.068 2.2944z" fill="#cfe2f3"/>
  <path d="m722.21 522.23l15.13 0.79004 0.33582 36.486-15.13-0.7901z" fill="#cfe2f3"/>
  <path d="m714.83 596.27l-12.825-9.0757 19.023-29.679 12.825 9.0757z" fill="#cfe2f3"/>
  <path d="m781.87 679.06l-15.12 1.7803 1.6504-208.27 15.12-1.7803z" fill="#cfe2f3"/>
  <path d="m815.07 661.56l-5.2018 15.895-33.445-8.898 5.2018-15.895z" fill="#cfe2f3"/>
  <path d="m743.55 686.63l-6.999-13.484 31.52-21.692 6.999 13.484z" fill="#cfe2f3"/>
  <path d="m808.17 466.01l6.1586 14.071-32.513 19.662-6.1586-14.071z" fill="#cfe2f3"/>
  <path d="m778.17 488.97l-10.071 13.402-26.602-22.06 10.071-13.402z" fill="#cfe2f3"/>
  <path d="m812.87 634.69l-3.9048 16.195-34.396-5.5499 3.9047-16.195z" fill="#cfe2f3"/>
  <path d="m741.26 659.34l-4.6226-14.857 33.887-15.965 4.6225 14.857z" fill="#cfe2f3"/>
  <path d="m807.28 494.59l6.0027 14.131-32.66 19.298-6.0027-14.13z" fill="#cfe2f3"/>
  <path d="m737.43 526.44l2.4705-16.354 35.128 1.7991-2.4704 16.354z" fill="#cfe2f3"/>
  <path d="m978.7 390.98l6.5549 6.2022-101.45 75.611-6.5549-6.2022z" fill="#cfe2f3"/>
  <path d="m957.72 382.34l9.654-3.4694 8.2854 18.426-9.6539 3.4694z" fill="#cfe2f3"/>
  <path d="m996.79 405.58l-3.8929 8.1172-22.37-6.3372 3.8929-8.1172z" fill="#cfe2f3"/>
  <path d="m865.65 457.17l4.4933-7.9513 21.762 7.5318-4.4933 7.9512z" fill="#cfe2f3"/>
  <path d="m888.06 462.36l10.28-0.34756-0.66339 20.149-10.28 0.34756z" fill="#cfe2f3"/>
  <path d="m945.54 393.19l9.3108-4.1674 10.264 17.629-9.3107 4.1674z" fill="#cfe2f3"/>
  <path d="m984.44 416.62l-5.4525 7.5431-20.489-9.5103 5.4525-7.5432z" fill="#cfe2f3"/>
  <path d="m879.82 447.1l4.5809-7.9024 21.641 7.7318-4.5809 7.9024z" fill="#cfe2f3"/>
  <path d="m921.54 467.09l-8.8477 4.8759-12.356-16.586 8.8477-4.8759z" fill="#cfe2f3"/>
  <path d="m885.32 410.19l2.9628-7.8787 100.75 45.962-2.9629 7.8788z" fill="#cfe2f3"/>
  <path d="m885.41 430.44l-6.4039-6.0233 12.789-14.646 6.404 6.0233z" fill="#cfe2f3"/>
  <path d="m891.34 389.56l8.3218-0.54556 2.5574 20.322-8.3218 0.54556z" fill="#cfe2f3"/>
  <path d="m982.15 469.41l-8.3939 0.0019531-1.3199-20.375 8.394-0.0019531z" fill="#cfe2f3"/>
  <path d="m978.59 449.56l-3.9602-7.896 17.45-8.4016 3.9602 7.8961z" fill="#cfe2f3"/>
  <path d="m899.02 435.17l-6.878-5.4455 11.404-15.843 6.878 5.4455z" fill="#cfe2f3"/>
  <path d="m905.18 394.34l8.3871 0.92972-0.82379 20.254-8.3871-0.92972z" fill="#cfe2f3"/>
  <path d="m968.49 462.77l-8.3835-0.088196-1.106-20.368 8.3834 0.088165z" fill="#cfe2f3"/>
  <path d="m970.7 421.25l7.3184 4.7692-9.7668 17.018-7.3184-4.7692z" fill="#cfe2f3"/>
  <path d="m931.56 376.58l8.3127-1.347 4.3411 116.35-8.3126 1.347z" fill="#cfe2f3"/>
  <path d="m913.65 387.12l2.4744-8.998 18.712 4.1888-2.4744 8.998z" fill="#cfe2f3"/>
  <path d="m952.55 371.46l4.2089 7.3671-16.876 12.85-4.2089-7.3671z" fill="#cfe2f3"/>
  <path d="m922.39 496.17l-3.7592-7.7143 17.476-11.739 3.7592 7.7143z" fill="#cfe2f3"/>
  <path d="m938.4 482.65l5.2289-7.7194 15.261 11.699-5.2289 7.7194z" fill="#cfe2f3"/>
  <path d="m915.54 402.08l1.7499-9.1353 19.153 2.2968-1.7499 9.1353z" fill="#cfe2f3"/>
  <path d="m954.5 386.64l2.9299 8.1893-18.329 9.7067-2.9299-8.1893z" fill="#cfe2f3"/>
  <path d="m922.17 480.19l-3.6746-7.7513 17.566-11.539 3.6746 7.7513z" fill="#cfe2f3"/>
  <path d="m959.97 460.77l-0.95306 9.1906-19.463-0.18506 0.953-9.1906z" fill="#cfe2f3"/>
  <path d="m980.91 706.98l1.2218 8.9412-126.45-4.6358-1.2218-8.9411z" fill="#cfe2f3"/>
  <path d="m969.98 687.11l9.698 3.345-5.0899 19.552-9.698-3.3449z" fill="#cfe2f3"/>
  <path d="m985.86 729.7l-8.1207 3.8873-13.463-18.956 8.1207-3.8873z" fill="#cfe2f3"/>
  <path d="m851.33 687.73l8.4847-3.3817 12.24 19.505-8.4847 3.3817z" fill="#cfe2f3"/>
  <path d="m865.55 705.82l8.2299 6.1706-13.144 15.289-8.2299-6.1707z" fill="#cfe2f3"/>
  <path d="m953.69 687.93l9.8679 2.5859-3.0484 20.172-9.8679-2.5859z" fill="#cfe2f3"/>
  <path d="m969.32 730.56l-8.9764 2.4627-10.008-20.25 8.9764-2.4627z" fill="#cfe2f3"/>
  <path d="m868.68 688.76l8.5223-3.2889 12.02 19.585-8.5223 3.2889z" fill="#cfe2f3"/>
  <path d="m888.67 730.49l-9.951-1.7434 0.76459-20.669 9.951 1.7435z" fill="#cfe2f3"/>
  <path d="m896.1 663.45l7.2465-4.2842 49.713 98.948-7.2466 4.2841z" fill="#cfe2f3"/>
  <path d="m883.48 679.28l-1.2162-8.707 19.145-3.4014 1.2162 8.707z" fill="#cfe2f3"/>
  <path d="m913.72 651.14l6.8275 4.7889-10.742 17.441-6.8275-4.7889z" fill="#cfe2f3"/>
  <path d="m934.45 770.27l-6.543-5.2579 11.74-16.707 6.5431 5.2579z" fill="#cfe2f3"/>
  <path d="m944.12 752.57l1.8618-8.6354 18.865 4.3857-1.8619 8.6354z" fill="#cfe2f3"/>
  <path d="m891.12 691.5l-1.9478-8.5538 18.816-5.2026 1.9478 8.5538z" fill="#cfe2f3"/>
  <path d="m921.51 663.54l5.9538 5.9797-13.335 15.27-5.9538-5.9797z" fill="#cfe2f3"/>
  <path d="m927.97 756.54l-6.4784-5.3216 11.902-16.568 6.4783 5.3215z" fill="#cfe2f3"/>
  <path d="m955.71 725.56l2.7148 8.3025-18.277 7.1443-2.7148-8.3025z" fill="#cfe2f3"/>
  <path d="m953.2 666.22l7.3226 4.1586-69.529 93.4-7.3226-4.1586z" fill="#cfe2f3"/>
  <path d="m932.63 663.22l7.5673-5.4626 11.958 14.989-7.5673 5.4626z" fill="#cfe2f3"/>
  <path d="m972.77 675.38l-1.3365 8.3791-21.205-0.55902 1.3366-8.379z" fill="#cfe2f3"/>
  <path d="m871.11 753.69l1.9047-8.3679 20.977 1.8005-1.9047 8.3679z" fill="#cfe2f3"/>
  <path d="m892.06 753.18l8.9128-2.7401 4.5624 18.68-8.9127 2.7401z" fill="#cfe2f3"/>
  <path d="m924.73 676.06l7.0886-6.0234 13.487 13.791-7.0886 6.0235z" fill="#cfe2f3"/>
  <path d="m964.77 688.44l-2.8486 8.2185-20.367-3.9191 2.8486-8.2185z" fill="#cfe2f3"/>
  <path d="m880.95 741.09l1.9938-8.3436 20.922 2.0129-1.9938 8.3436z" fill="#cfe2f3"/>
  <path d="m922.58 749.65l-6.5023 6.5659-15.052-12.339 6.5023-6.5659z" fill="#cfe2f3"/>
  <path d="m388.91 866.6l-11.938 0.66205 15.621-164.94 11.938-0.66205z" fill="#cfe2f3"/>
  <path d="m416.06 854.38l-5.1589 12.337-25.525-8.7064 5.1589-12.337z" fill="#cfe2f3"/>
  <path d="m358.44 870.7l-4.5418-11.031 26.125-15.628 4.5418 11.031z" fill="#cfe2f3"/>
  <path d="m424.12 699.09l3.8448 11.454-26.762 13.97-3.8447-11.454z" fill="#cfe2f3"/>
  <path d="m399.09 715.8l-8.7928 10.12-19.272-18.797 8.7928-10.12z" fill="#cfe2f3"/>
  <path d="m416.19 832.98l-4.1659 12.639-26.499-6.1005 4.1659-12.639z" fill="#cfe2f3"/>
  <path d="m358.53 848.97l-2.5902-12.001 27.581-10.972 2.5902 12.001z" fill="#cfe2f3"/>
  <path d="m421.46 721.69l3.7188 11.494-26.851 13.674-3.7188-11.494z" fill="#cfe2f3"/>
  <path d="m364.67 743.47l3.0559-12.836 27.329 3.1648-3.0559 12.836z" fill="#cfe2f3"/>
  <path d="m452.95 760.2l5.1332 9.9289-134.83 54.674-5.1333-9.9289z" fill="#cfe2f3"/>
  <path d="m432.91 742.04l11.628-0.67938 3.0718 25.403-11.628 0.67932z" fill="#cfe2f3"/>
  <path d="m467.93 784.55l-6.8571 8.4305-22.304-15.88 6.8571-8.4304z" fill="#cfe2f3"/>
  <path d="m308.54 799.19l7.4571-8.0093 21.256 17.108-7.4571 8.0093z" fill="#cfe2f3"/>
  <path d="m331.26 813.69l11.302 3.3401-7.225 24.221-11.302-3.3401z" fill="#cfe2f3"/>
  <path d="m416.15 750.75l11.48-1.6523 5.4829 25.16-11.48 1.6524z" fill="#cfe2f3"/>
  <path d="m450.92 793.44l-8.3693 7.1628-19.233-19.044 8.3694-7.1628z" fill="#cfe2f3"/>
  <path d="m327.21 792.15l7.5366-7.918 21.06 17.306-7.5366 7.918z" fill="#cfe2f3"/>
  <path d="m366.17 831.69l-11.204 2.6821-8.0962-24.659 11.204-2.6821z" fill="#cfe2f3"/>
  <path d="m444.99 834.61l-6.059 9.1442-118.54-100.74 6.059-9.1442z" fill="#cfe2f3"/>
  <path d="m450.51 808.02l6.6706 10.472-20.757 14.074-6.6706-10.472z" fill="#cfe2f3"/>
  <path d="m431.39 859.26l-11.002-2.626 2.3301-27.682 11.002 2.626z" fill="#cfe2f3"/>
  <path d="m335.25 718.06l10.945 3.3681-3.958 27.254-10.945-3.3681z" fill="#cfe2f3"/>
  <path d="m334.36 745.53l2.9625 11.947-25.093 4.0125-2.9625-11.947z" fill="#cfe2f3"/>
  <path d="m434.09 796.35l7.4497 9.9044-19.284 16.201-7.4497-9.9044z" fill="#cfe2f3"/>
  <path d="m414.68 847.43l-10.676-4.5873 6.7194-26.235 10.676 4.5873z" fill="#cfe2f3"/>
  <path d="m351.2 732.25l10.906 3.4821-4.2352 27.16-10.906-3.4821z" fill="#cfe2f3"/>
  <path d="m336.75 785.83l-8.2123-9.1942 17.477-18.4 8.2123 9.1942z" fill="#cfe2f3"/>
  <path d="m765.35 866.6l-11.938 0.66205 15.621-164.94 11.938-0.66205z" fill="#cfe2f3"/>
  <path d="m792.5 854.38l-5.1589 12.337-25.525-8.7064 5.1589-12.337z" fill="#cfe2f3"/>
  <path d="m734.88 870.7l-4.5419-11.031 26.125-15.628 4.5419 11.031z" fill="#cfe2f3"/>
  <path d="m800.56 699.09l3.8447 11.454-26.762 13.97-3.8447-11.454z" fill="#cfe2f3"/>
  <path d="m775.53 715.8l-8.7928 10.12-19.272-18.797 8.7928-10.12z" fill="#cfe2f3"/>
  <path d="m792.63 832.98l-4.1659 12.639-26.499-6.1005 4.166-12.639z" fill="#cfe2f3"/>
  <path d="m734.97 848.97l-2.5901-12.001 27.581-10.972 2.5902 12.001z" fill="#cfe2f3"/>
  <path d="m797.9 721.69l3.7189 11.494-26.851 13.674-3.7189-11.494z" fill="#cfe2f3"/>
  <path d="m741.12 743.47l3.056-12.836 27.329 3.1648-3.056 12.836z" fill="#cfe2f3"/>
  <path d="m829.39 760.2l5.1332 9.9289-134.83 54.674-5.1333-9.9289z" fill="#cfe2f3"/>
  <path d="m809.35 742.04l11.628-0.67938 3.0718 25.403-11.628 0.67932z" fill="#cfe2f3"/>
  <path d="m844.37 784.55l-6.8571 8.4305-22.304-15.88 6.8571-8.4304z" fill="#cfe2f3"/>
  <path d="m684.98 799.19l7.4571-8.0093 21.256 17.108-7.4571 8.0093z" fill="#cfe2f3"/>
  <path d="m707.7 813.69l11.302 3.3401-7.225 24.221-11.302-3.3401z" fill="#cfe2f3"/>
  <path d="m792.59 750.75l11.48-1.6523 5.483 25.16-11.48 1.6524z" fill="#cfe2f3"/>
  <path d="m827.36 793.44l-8.3694 7.1628-19.233-19.044 8.3693-7.1628z" fill="#cfe2f3"/>
  <path d="m703.65 792.15l7.5366-7.918 21.06 17.306-7.5366 7.918z" fill="#cfe2f3"/>
  <path d="m742.61 831.69l-11.204 2.6821-8.0962-24.659 11.204-2.6821z" fill="#cfe2f3"/>
  <path d="m821.43 834.61l-6.059 9.1442-118.54-100.74 6.059-9.1442z" fill="#cfe2f3"/>
  <path d="m826.95 808.02l6.6707 10.472-20.757 14.074-6.6707-10.472z" fill="#cfe2f3"/>
  <path d="m807.83 859.26l-11.002-2.626 2.3301-27.682 11.002 2.626z" fill="#cfe2f3"/>
  <path d="m711.69 718.06l10.945 3.3681-3.9581 27.254-10.945-3.3681z" fill="#cfe2f3"/>
  <path d="m710.8 745.53l2.9625 11.947-25.093 4.0125-2.9625-11.947z" fill="#cfe2f3"/>
  <path d="m810.53 796.35l7.4497 9.9044-19.284 16.201-7.4497-9.9044z" fill="#cfe2f3"/>
  <path d="m791.12 847.43l-10.676-4.5873 6.7194-26.235 10.676 4.5873z" fill="#cfe2f3"/>
  <path d="m727.64 732.25l10.906 3.4821-4.2352 27.16-10.906-3.4821z" fill="#cfe2f3"/>
  <path d="m713.19 785.83l-8.2123-9.1942 17.477-18.4 8.2123 9.1942z" fill="#cfe2f3"/>
  <path d="m990.34 656.54l-11.938 0.66205 15.621-164.94 11.938-0.66205z" fill="#9fc6f3"/>
  <path d="m1017.5 644.32l-5.1589 12.337-25.525-8.7064 5.1589-12.337z" fill="#9fc6f3"/>
  <path d="m959.88 660.64l-4.5419-11.031 26.125-15.628 4.5419 11.031z" fill="#9fc6f3"/>
  <path d="m1025.6 489.03l3.8447 11.454-26.762 13.97-3.8447-11.454z" fill="#9fc6f3"/>
  <path d="m1000.5 505.74l-8.7928 10.12-19.272-18.797 8.7928-10.12z" fill="#9fc6f3"/>
  <path d="m1017.6 622.92l-4.1659 12.639-26.499-6.1005 4.166-12.639z" fill="#9fc6f3"/>
  <path d="m959.96 638.91l-2.5901-12.001 27.581-10.972 2.5902 12.001z" fill="#9fc6f3"/>
  <path d="m1022.9 511.63l3.7188 11.494-26.851 13.674-3.7189-11.494z" fill="#9fc6f3"/>
  <path d="m966.11 533.41l3.056-12.836 27.329 3.1648-3.056 12.836z" fill="#9fc6f3"/>
  <path d="m1054.4 550.15l5.1333 9.9288-134.83 54.674-5.1333-9.9289z" fill="#9fc6f3"/>
  <path d="m1034.3 531.99l11.628-0.67938 3.0718 25.403-11.628 0.67932z" fill="#9fc6f3"/>
  <path d="m1069.4 574.49l-6.8571 8.4305-22.304-15.88 6.8571-8.4304z" fill="#9fc6f3"/>
  <path d="m909.97 589.14l7.4571-8.0093 21.256 17.108-7.4571 8.0093z" fill="#9fc6f3"/>
  <path d="m932.69 603.63l11.302 3.3401-7.225 24.221-11.302-3.3401z" fill="#9fc6f3"/>
  <path d="m1017.6 540.7l11.48-1.6523 5.4829 25.16-11.48 1.6524z" fill="#9fc6f3"/>
  <path d="m1052.4 583.38l-8.3693 7.1628-19.233-19.044 8.3694-7.1628z" fill="#9fc6f3"/>
  <path d="m928.65 582.09l7.5366-7.918 21.06 17.306-7.5366 7.918z" fill="#9fc6f3"/>
  <path d="m967.61 621.63l-11.204 2.6821-8.0962-24.659 11.204-2.6821z" fill="#9fc6f3"/>
  <path d="m1046.4 624.56l-6.059 9.1442-118.54-100.74 6.059-9.1442z" fill="#9fc6f3"/>
  <path d="m1051.9 597.97l6.6707 10.472-20.757 14.074-6.6707-10.472z" fill="#9fc6f3"/>
  <path d="m1032.8 649.2l-11.002-2.626 2.3301-27.682 11.002 2.626z" fill="#9fc6f3"/>
  <path d="m936.69 508.01l10.945 3.3681-3.9581 27.254-10.945-3.3681z" fill="#9fc6f3"/>
  <path d="m935.79 535.47l2.9625 11.947-25.093 4.0125-2.9625-11.947z" fill="#9fc6f3"/>
  <path d="m1035.5 586.29l7.4497 9.9044-19.284 16.201-7.4497-9.9044z" fill="#9fc6f3"/>
  <path d="m1016.1 637.37l-10.676-4.5873 6.7194-26.235 10.676 4.5873z" fill="#9fc6f3"/>
  <path d="m952.64 522.19l10.906 3.4821-4.2352 27.16-10.906-3.4821z" fill="#9fc6f3"/>
  <path d="m938.18 575.77l-8.2123-9.1942 17.477-18.4 8.2123 9.1942z" fill="#9fc6f3"/>
  <path d="m1008.3 326.04l-7.3984 9.3925-113.41-120.8 7.3984-9.3925z" fill="#cfe2f3"/>
  <path d="m1017 297.6l5.8433 12.029-23.411 13.388-5.8433-12.029z" fill="#cfe2f3"/>
  <path d="m991.19 351.61l-11.279-3.8886 5.5536-29.931 11.279 3.8886z" fill="#cfe2f3"/>
  <path d="m905.89 188.85l11.135 4.6914-7.218 29.312-11.135-4.6914z" fill="#cfe2f3"/>
  <path d="m901.87 218.67l1.7773 13.288-26.846 2.0241-1.7773-13.288z" fill="#cfe2f3"/>
  <path d="m1001.1 283.35l6.7264 11.483-22.1 15.841-6.7264-11.483z" fill="#cfe2f3"/>
  <path d="m974.94 337.17l-10.716-5.9942 10.009-27.945 10.716 5.9942z" fill="#cfe2f3"/>
  <path d="m921.08 205.79l11.082 4.812-7.499 29.184-11.082-4.812z" fill="#cfe2f3"/>
  <path d="m899.87 262.79l-7.6082-10.781 20.447-18.405 7.6082 10.781z" fill="#cfe2f3"/>
  <path d="m970.8 207.64l10.843 2.7161-48.15 137.29-10.843-2.7161z" fill="#cfe2f3"/>
  <path d="m943.92 210.66l7.1801-9.171 21.088 14.496-7.1801 9.1711z" fill="#cfe2f3"/>
  <path d="m998.97 212.51l1.7896 10.719-26.663 6.2275-1.7897-10.719z" fill="#cfe2f3"/>
  <path d="m904.54 341.75l-1.0769-10.89 26.891-4.6295 1.0769 10.89z" fill="#cfe2f3"/>
  <path d="m930.45 334.29l9.98-6.2686 13.392 21.437-9.98 6.2686z" fill="#cfe2f3"/>
  <path d="m939.37 229l6.3521-9.7033 22.5 12.527-6.3521 9.7033z" fill="#cfe2f3"/>
  <path d="m994.39 231.14l-0.16138 11.015-27.005 1.8309 0.16138-11.015z" fill="#cfe2f3"/>
  <path d="m911.61 323.08l-0.95581-10.89 26.91-4.3511 0.95581 10.89z" fill="#cfe2f3"/>
  <path d="m967.04 320.01l-5.3974 10.178-23.852-10.235 5.3974-10.178z" fill="#cfe2f3"/>
  <path d="m1021.4 262.82l2.8529 10.592-153.97 22.29-2.8529-10.592z" fill="#cfe2f3"/>
  <path d="m1005.1 241.1l12.267 1.9221-3.1683 24.877-12.267-1.9221z" fill="#cfe2f3"/>
  <path d="m1030.8 289.32l-9.2457 6.5155-19.226-20.055 9.2457-6.5155z" fill="#cfe2f3"/>
  <path d="m861.35 268.06l9.7644-5.9817 17.828 20.993-9.7645 5.9817z" fill="#cfe2f3"/>
  <path d="m881.36 286.89l10.921 5.679-13.584 21.475-10.922-5.679z" fill="#cfe2f3"/>
  <path d="m985.44 245.69l12.357 0.96248-0.59912 25.178-12.357-0.96249z" fill="#cfe2f3"/>
  <path d="m1010.9 294.03l-10.501 4.9738-15.237-22.391 10.501-4.9738z" fill="#cfe2f3"/>
  <path d="m882.54 265.47l9.8243-5.8772 17.574 21.139-9.8243 5.8772z" fill="#cfe2f3"/>
  <path d="m913.17 311.75l-12.328 0.079285-2.2452-25.278 12.328-0.079315z" fill="#cfe2f3"/>
  <path d="m935.7 144.88l-9.6511 0.39255 10.776-131.49 9.6511-0.39255z" fill="#cfe2f3"/>
  <path d="m957.53 135.44l-4.0345 9.7897-20.749-7.2409 4.0345-9.7897z" fill="#cfe2f3"/>
  <path d="m911.1 147.81l-3.799-8.8576 20.96-12.178 3.799 8.8576z" fill="#cfe2f3"/>
  <path d="m962.3 11.566l3.2398 9.1875-21.493 10.847-3.2398-9.1875z" fill="#cfe2f3"/>
  <path d="m942.24 24.618l-6.9995 7.9789-15.804-15.225 6.9994-7.9789z" fill="#cfe2f3"/>
  <path d="m957.39 118.36l-3.2277 10.042-21.507-5.1717 3.2277-10.042z" fill="#cfe2f3"/>
  <path d="m910.92 130.46l-2.231-9.6099 22.19-8.4451 2.231 9.6099z" fill="#cfe2f3"/>
  <path d="m960.4 29.575l3.1384 9.2176-21.569 10.61-3.1384-9.2176z" fill="#cfe2f3"/>
  <path d="m914.7 46.316l2.3275-10.212 22.145 2.8376-2.3275 10.212z" fill="#cfe2f3"/>
  <path d="m986.31 60.679l4.265 7.9845-108.46 42.11-4.265-7.9845z" fill="#cfe2f3"/>
  <path d="m969.89 45.953l9.3997-0.40989 2.772 20.314-9.3997 0.40989z" fill="#cfe2f3"/>
  <path d="m998.71 80.283l-5.4525 6.6518-18.224-12.931 5.4524-6.6518z" fill="#cfe2f3"/>
  <path d="m869.92 90.159l5.9426-6.3088 17.39 13.899-5.9426 6.3088z" fill="#cfe2f3"/>
  <path d="m888.46 101.99l9.1816 2.7951-5.5719 19.253-9.1816-2.7951z" fill="#cfe2f3"/>
  <path d="m956.43 52.716l9.2687-1.1883 4.7199 20.147-9.2687 1.1883z" fill="#cfe2f3"/>
  <path d="m985.05 87.184l-6.6902 5.6226-15.775-15.422 6.6902-5.6226z" fill="#cfe2f3"/>
  <path d="m884.94 84.75l6.008-6.235 17.234 14.055-6.008 6.235z" fill="#cfe2f3"/>
  <path d="m916.91 116.76l-9.0342 2.0135-6.8284-19.777 9.0342-2.0135z" fill="#cfe2f3"/>
  <path d="m980.71 119.99l-4.7987 7.2307-97.041-81.77 4.7987-7.2307z" fill="#cfe2f3"/>
  <path d="m984.88 98.825l5.5149 8.4355-16.634 10.999-5.515-8.4355z" fill="#cfe2f3"/>
  <path d="m969.98 139.51l-8.9305-2.2216 1.5726-22.072 8.9305 2.2216z" fill="#cfe2f3"/>
  <path d="m890.61 25.7l8.8925 2.8133-2.8945 21.711-8.8925-2.8133z" fill="#cfe2f3"/>
  <path d="m890.2 47.611l2.5316 9.5708-20.256 2.9174-2.5316-9.5708z" fill="#cfe2f3"/>
  <path d="m971.46 89.317l6.1389 7.9914-15.418 12.713-6.1389-7.9914z" fill="#cfe2f3"/>
  <path d="m956.34 129.87l-8.6889-3.7836 5.1401-20.867 8.6889 3.7836z" fill="#cfe2f3"/>
  <path d="m903.68 37.207l8.8624 2.9039-3.1198 21.633-8.8624-2.9039z" fill="#cfe2f3"/>
  <path d="m892.59 79.809l-6.7478-7.4331 13.932-14.489 6.7478 7.4331z" fill="#cfe2f3"/>
  <path d="m879.35-63.017l2.3574 11.722-165.47 8.0658-2.3575-11.722z" fill="#9fc6f3"/>
  <path d="m863.39-88.146l12.946 3.3466-4.9775 26.507-12.946-3.3466z" fill="#9fc6f3"/>
  <path d="m887.75-33.445l-10.27 6.069-19.192-23.63 10.27-6.069z" fill="#9fc6f3"/>
  <path d="m708.54-73.979l10.788-5.4394 17.642 24.497-10.788 5.4394z" fill="#9fc6f3"/>
  <path d="m728.65-51.587l11.27 7.2597-15.856 21.757-11.27-7.2597z" fill="#9fc6f3"/>
  <path d="m842.19-85.226l13.103 2.3207-2.2596 27.099-13.103-2.3207z" fill="#9fc6f3"/>
  <path d="m866.23-30.432l-11.509 4.2757-14.792-25.735 11.509-4.2757z" fill="#9fc6f3"/>
  <path d="m731.29-74.564l10.845-5.3204 17.362 24.627-10.845 5.3204z" fill="#9fc6f3"/>
  <path d="m760.94-21.468l-13.14-1.1939-0.76434-27.502 13.14 1.1939z" fill="#9fc6f3"/>
  <path d="m764.92-111.23l9.0949-6.4972 73.337 125.66-9.0949 6.4972z" fill="#9fc6f3"/>
  <path d="m749.8-88.803l-2.3303-11.413 24.704-6.664 2.3303 11.413z" fill="#9fc6f3"/>
  <path d="m786.87-129.53l9.3215 5.5847-12.537 24.342-9.3215-5.5847z" fill="#9fc6f3"/>
  <path d="m824.09 26.151l-8.9902-6.2387 13.901-23.48 8.9902 6.2387z" fill="#9fc6f3"/>
  <path d="m835.2 1.5906l1.6943-11.664 25.002 3.6967-1.6942 11.664z" fill="#9fc6f3"/>
  <path d="m760.81-73.456l-3.2722-11.127 24.12-9.016 3.2722 11.127z" fill="#9fc6f3"/>
  <path d="m798.09-113.97l8.2825 7.2624-16.106 21.753-8.2825-7.2624z" fill="#9fc6f3"/>
  <path d="m814.46 8.671l-8.9113-6.3304 14.126-23.314 8.9113 6.3304z" fill="#9fc6f3"/>
  <path d="m848.04-35.536l4.2521 10.708-23.251 11.531-4.2521-10.708z" fill="#9fc6f3"/>
  <path d="m839.7-113.97l9.9141 4.693-82.804 131.7-9.9142-4.693z" fill="#9fc6f3"/>
  <path d="m812.59-115.64l9.4131-8.0964 16.889 18.538-9.4132 8.0964z" fill="#9fc6f3"/>
  <path d="m866.02-104.02l-1.0304 11.264-27.73 1.6423 1.0304-11.264z" fill="#9fc6f3"/>
  <path d="m739.99 11.278l1.7729-11.314 27.538 0.030226-1.7729 11.314z" fill="#9fc6f3"/>
  <path d="m767.3 8.2475l11.402-4.6364 7.5491 24.265-11.402 4.6364z" fill="#9fc6f3"/>
  <path d="m803.38-97.72l8.7404-8.7866 18.784 16.776-8.7404 8.7866z" fill="#9fc6f3"/>
  <path d="m856.7-85.795l-3.0181 11.222-26.924-2.9088 3.0181-11.222z" fill="#9fc6f3"/>
  <path d="m751.76-6.5347l1.8913-11.291 27.485 0.318-1.8913 11.291z" fill="#9fc6f3"/>
  <path d="m806.84 0.13211l-7.9287 9.4401-20.703-14.675 7.9287-9.4401z" fill="#9fc6f3"/>
 </g>
</svg>
